<?xml version="1.0" encoding="utf-8"?>
<!-- Generator: Adobe Illustrator 22.1.0, SVG Export Plug-In . SVG Version: 6.00 Build 0)  -->
<svg version="1.1" id="Ebene_1" xmlns="http://www.w3.org/2000/svg" xmlns:xlink="http://www.w3.org/1999/xlink" x="0px" y="0px"
	 viewBox="0 0 524.4 347.2" style="enable-background:new 0 0 524.4 347.2;" xml:space="preserve">
<style type="text/css">
	.st0{fill:#FFFFFF;}
	.st1{fill:#FEEEF2;}
	.st2{fill:none;stroke:#1A1A18;stroke-width:0.25;stroke-miterlimit:10;}
	.st3{fill:none;stroke:#1A1A18;stroke-width:0.25;stroke-miterlimit:10;stroke-dasharray:2.9981,2.9981;}
	.st4{fill:none;stroke:#1A1A18;stroke-width:0.5;stroke-miterlimit:10;}
	.st5{fill:#1A1A18;}
	.st6{fill:none;stroke:#1A1A18;stroke-width:3;stroke-miterlimit:10;}
	.st7{fill:none;stroke:#FFFFFF;stroke-width:3;stroke-miterlimit:10;}
	.st8{fill:#B00A34;}
	.st9{fill:none;stroke:#B60064;stroke-width:0.5;stroke-miterlimit:10;}
	.st10{fill:#B60064;}
</style>
<rect class="st0" width="524.4" height="347.2"/>
<path class="st1" d="M318.4,106.2c-15-13.2-34.6-21.2-56.2-21.2c-21.5,0-41.2,8-56.2,21.2c-17.7,15.6-28.9,38.4-28.9,63.8
	c0,24.9,10.7,47.3,27.8,62.9c15.1,13.8,35.2,22.1,57.2,22.1s42.1-8.4,57.2-22.1c17.1-15.6,27.8-38,27.8-62.9
	C347.2,144.6,336.1,121.8,318.4,106.2z"/>
<g>
	<line class="st2" x1="233.9" y1="134.6" x2="233.9" y2="136.1"/>
	<line class="st3" x1="233.9" y1="139.1" x2="233.9" y2="287.6"/>
	<line class="st2" x1="233.9" y1="289.1" x2="233.9" y2="290.6"/>
</g>
<g>
	<line class="st2" x1="290.6" y1="134.6" x2="290.6" y2="136.1"/>
	<line class="st3" x1="290.6" y1="139.1" x2="290.6" y2="287.6"/>
	<line class="st2" x1="290.6" y1="289.1" x2="290.6" y2="290.6"/>
</g>
<g>
</g>
<g>
	<line class="st4" x1="241.5" y1="283.5" x2="282.9" y2="283.5"/>
	<g>
		<polygon class="st5" points="243.1,285.5 243.5,285.1 241.7,283.5 243.5,281.8 243.1,281.4 240.9,283.5 		"/>
	</g>
	<g>
		<polygon class="st5" points="281.3,285.5 280.9,285.1 282.7,283.5 280.9,281.8 281.3,281.4 283.5,283.5 		"/>
	</g>
</g>
<g>
	<path class="st5" d="M365.6,168.8c0.6,0.1,1.1,0.5,1.1,0.5l-0.1,0.8h-5.1l-0.1-0.8c0,0,0.5-0.4,1-0.5l-0.6-1.6H359l-0.6,1.6
		c0.5,0.1,1,0.5,1,0.5l-0.1,0.8H356l-0.1-0.8c0,0,0.5-0.4,1-0.5l3.2-8.5h2.5L365.6,168.8z M359.5,165.8h1.7l-0.6-1.7v-1.1h-0.1
		L359.5,165.8z"/>
	<path class="st5" d="M366.6,173.4l-0.1-0.6c0,0,0.4-0.3,0.9-0.4v-8h-0.8l-0.1-0.8c0,0,0.8-0.6,2.2-0.6c0.9,0,1.3,0.3,1.3,0.3v0.8
		h0.1c0,0,0.6-1.1,2-1.1c1.6,0,2.9,1.3,2.9,3.6c0,2.3-1.4,3.7-3,3.7c-1.3,0-1.8-0.8-1.8-0.8H370l0.1,0.8v2.2c0.6,0.1,1,0.4,1,0.4
		l-0.1,0.6H366.6z M370.1,167.1c0,1.2,0.5,1.7,1,1.7s1-0.5,1-2.1c0-1.6-0.5-2.1-1.1-2.1s-0.9,0.6-0.9,0.6V167.1z"/>
	<path class="st5" d="M375.7,173.4l-0.1-0.6c0,0,0.4-0.3,0.9-0.4v-8h-0.8l-0.1-0.8c0,0,0.8-0.6,2.2-0.6c0.9,0,1.3,0.3,1.3,0.3v0.8
		h0.1c0,0,0.6-1.1,2-1.1c1.6,0,2.9,1.3,2.9,3.6c0,2.3-1.4,3.7-3,3.7c-1.3,0-1.8-0.8-1.8-0.8h-0.1l0.1,0.8v2.2
		c0.6,0.1,1.1,0.4,1.1,0.4l-0.1,0.6H375.7z M379.2,167.1c0,1.2,0.5,1.7,1,1.7s1-0.5,1-2.1c0-1.6-0.5-2.1-1.1-2.1
		c-0.6,0-0.9,0.6-0.9,0.6V167.1z"/>
	<path class="st5" d="M384.7,170.1l-0.1-0.6c0,0,0.4-0.3,0.9-0.4v-8.2h-0.8l-0.1-0.8c0,0,0.8-0.6,2.2-0.6c1,0,1.5,0.3,1.5,0.3v9.3
		c0.5,0.1,0.9,0.4,0.9,0.4l-0.1,0.6H384.7z"/>
	<path class="st5" d="M389.4,170.1l-0.1-0.6c0,0,0.4-0.3,0.9-0.4v-4.5h-0.8l-0.1-0.8c0,0,0.8-0.6,2.2-0.6c1,0,1.5,0.3,1.5,0.3v5.6
		c0.5,0.1,0.9,0.4,0.9,0.4l-0.1,0.6H389.4z M391.5,162.7c-0.8,0-1.5-0.6-1.5-1.3c0-0.7,0.6-1.3,1.5-1.3s1.5,0.6,1.5,1.3
		C393,162,392.4,162.7,391.5,162.7z"/>
	<path class="st5" d="M399.8,164.1c-0.4-0.1-0.8-0.4-0.8-0.4l0.1-0.6h2.8l0.1,0.6c0,0-0.4,0.3-0.8,0.4l-1.3,1.8
		c0.4,0.9,1.4,2.5,2,3.1c0.5,0.1,0.8,0.4,0.8,0.4l-0.1,0.6h-3.3c-0.5-0.7-1.2-2.2-1.4-3h-0.3v2c0.4,0.2,0.7,0.4,0.7,0.4l-0.1,0.6
		h-4.1l-0.1-0.6c0,0,0.4-0.3,0.9-0.4v-8.2H394l-0.1-0.8c0,0,0.8-0.6,2.2-0.6c1,0,1.5,0.3,1.5,0.3v6.2l1-0.1L399.8,164.1z"/>
	<path class="st5" d="M410.1,168.7h0.8l0.1,0.8c0,0-0.8,0.6-2.2,0.6c-0.9,0-1.3-0.3-1.3-0.3v-0.8h-0.1c0,0-0.7,1.1-2.1,1.1
		c-1.3,0-2.2-0.8-2.2-2c0-1.2,1-2.2,3-2.2c0.7,0,1.3,0.1,1.3,0.1V165c0-0.6-0.3-1-1-1c-0.2,0-0.5,0.1-0.5,0.1l-0.1,1.5h-2
		c0,0-0.2-0.2-0.2-0.7c0-1.1,1-2,3.2-2c2.2,0,3.4,1.1,3.4,2.5V168.7z M407.3,168v-1h-0.4c-0.8,0-1.1,0.4-1.1,0.8
		c0,0.4,0.3,0.7,0.7,0.7C407,168.6,407.3,168,407.3,168z"/>
	<path class="st5" d="M412,164.3h-0.8l-0.2-0.9c0,0,0.5-0.4,1.1-0.4l0.9-1.7h1.8v1.8h1.6v1.3h-1.6v3.2c0,0.7,0.4,1.1,0.8,1.1
		s1-0.4,1-0.4l0.5,0.8c0,0-0.9,1.1-2.7,1.1c-1.5,0-2.3-0.8-2.3-2.1V164.3z"/>
	<path class="st5" d="M417.5,170.1l-0.1-0.6c0,0,0.4-0.3,0.9-0.4v-4.5h-0.8l-0.1-0.8c0,0,0.8-0.6,2.2-0.6c1,0,1.5,0.3,1.5,0.3v5.6
		c0.5,0.1,0.9,0.4,0.9,0.4l-0.1,0.6H417.5z M419.6,162.7c-0.8,0-1.5-0.6-1.5-1.3c0-0.7,0.6-1.3,1.5-1.3c0.8,0,1.5,0.6,1.5,1.3
		C421.1,162,420.4,162.7,419.6,162.7z"/>
	<path class="st5" d="M426.3,170.2c-2.5,0-4-1.5-4-3.6c0-2.1,1.6-3.7,4-3.7c2.5,0,4,1.5,4,3.6C430.3,168.6,428.7,170.2,426.3,170.2z
		 M426.3,164.1c-0.6,0-1.1,0.6-1.1,2.5s0.6,2.5,1.1,2.5c0.6,0,1.1-0.6,1.1-2.5S426.9,164.1,426.3,164.1z"/>
	<path class="st5" d="M434.6,165.1v3.9c0.4,0.2,0.6,0.4,0.6,0.4l-0.1,0.6h-3.9l-0.1-0.6c0,0,0.4-0.3,0.9-0.4v-4.6H431l-0.1-0.8
		c0,0,0.8-0.6,2.2-0.6c0.9,0,1.3,0.3,1.3,0.3v0.8h0.1c0,0,0.7-1.1,2.1-1.1c1.3,0,2.2,0.9,2.2,2.2v3.9c0.5,0.1,0.9,0.4,0.9,0.4
		l-0.1,0.6h-3.9l-0.1-0.6c0,0,0.2-0.2,0.6-0.4v-3.6c0-0.6-0.3-0.8-0.7-0.8C434.9,164.5,434.6,165.1,434.6,165.1z"/>
	<path class="st5" d="M440.3,165.2c0-1.2,1.1-2.2,3.1-2.2c1.6,0,2.8,0.5,2.8,0.5l-0.1,2h-1.1c0,0-0.4-0.6-0.6-1.3
		c0,0-0.2-0.1-0.5-0.1c-0.5,0-0.8,0.3-0.8,0.6c0,0.9,3.5,1,3.5,3.2c0,1.3-1.1,2.4-3.2,2.4c-1.9,0-3.1-0.6-3.1-0.6l0.2-2h1.1
		c0,0,0.5,0.6,0.7,1.3c0,0,0.3,0.1,0.7,0.1c0.6,0,0.9-0.4,0.9-0.7C443.8,167.5,440.3,167.4,440.3,165.2z"/>
	<path class="st5" d="M447.4,165.5h4.2v1.4h-4.2V165.5z"/>
</g>
<g>
	<path class="st5" d="M366.1,180.8c0-2.1,1.6-3.7,3.8-3.7s3.5,1.3,3.5,3.1c0,0.6-0.1,0.8-0.1,0.8H369c0.1,1.3,0.8,2,1.9,2
		c0.9,0,1.6-0.8,1.6-0.8l0.7,0.7c0,0-1,1.5-3.1,1.5C367.6,184.4,366.1,182.9,366.1,180.8z M369,179.8h1.8c-0.1-1.1-0.5-1.5-0.9-1.5
		S369,178.6,369,179.8z"/>
	<path class="st5" d="M377.7,179.3v3.9c0.3,0.2,0.6,0.4,0.6,0.4l-0.1,0.6h-3.9l-0.1-0.6c0,0,0.4-0.3,0.9-0.4v-4.6h-0.8l-0.1-0.8
		c0,0,0.8-0.6,2.2-0.6c0.9,0,1.3,0.3,1.3,0.3v0.8h0.1c0,0,0.7-1.1,2.1-1.1c1.3,0,2.2,0.9,2.2,2.2v3.9c0.5,0.1,0.9,0.4,0.9,0.4
		l-0.1,0.6h-3.9l-0.1-0.6c0,0,0.2-0.2,0.6-0.4v-3.6c0-0.6-0.3-0.8-0.7-0.8C378,178.7,377.7,179.3,377.7,179.3z"/>
	<path class="st5" d="M383.9,178.5H383l-0.2-0.9c0,0,0.5-0.4,1.1-0.4l0.9-1.7h1.8v1.8h1.6v1.3h-1.6v3.2c0,0.7,0.4,1.1,0.8,1.1
		s1-0.4,1-0.4l0.5,0.8c0,0-0.9,1.1-2.7,1.1c-1.5,0-2.3-0.8-2.3-2.1V178.5z"/>
	<path class="st5" d="M396.3,184.3l-1-3.3v-1h-0.1l-1.3,4.3h-2.2l-2-6c-0.5-0.1-0.8-0.4-0.8-0.4l0.1-0.6h4.2l0.1,0.6
		c0,0-0.4,0.3-0.8,0.4l0.7,2.2v1h0.1l1.3-4.3h2.2l1,3.3v1h0.1l1.1-3.2c-0.4-0.1-0.8-0.4-0.8-0.4l0.1-0.6h2.8l0.1,0.6
		c0,0-0.4,0.3-0.8,0.4l-2,6H396.3z"/>
	<path class="st5" d="M401.5,184.3l-0.1-0.6c0,0,0.4-0.3,0.9-0.4v-4.5h-0.8l-0.1-0.8c0,0,0.8-0.6,2.2-0.6c1,0,1.5,0.3,1.5,0.3v5.6
		c0.5,0.1,0.9,0.4,0.9,0.4l-0.1,0.6H401.5z M403.6,176.8c-0.8,0-1.5-0.6-1.5-1.3c0-0.7,0.6-1.3,1.5-1.3c0.8,0,1.5,0.6,1.5,1.3
		C405.1,176.2,404.5,176.8,403.6,176.8z"/>
	<path class="st5" d="M406.4,180.8c0-2.1,1.6-3.7,4.1-3.7c2,0,2.9,1,2.9,2.1c0,0.5-0.2,0.9-0.2,0.9h-1.8l-0.3-1.8
		c0,0-0.1-0.1-0.3-0.1c-0.8,0-1.5,0.7-1.5,2.3s0.8,2.5,1.9,2.5c1,0,1.7-0.8,1.7-0.8l0.7,0.7c0,0-1,1.5-3.2,1.5
		C407.9,184.4,406.4,182.9,406.4,180.8z"/>
	<path class="st5" d="M419.9,178.3c-0.4-0.1-0.8-0.4-0.8-0.4l0.1-0.6h2.8l0.1,0.6c0,0-0.4,0.3-0.8,0.4l-1.3,1.8
		c0.4,0.9,1.4,2.5,2,3.1c0.5,0.1,0.8,0.4,0.8,0.4l-0.1,0.6h-3.3c-0.5-0.7-1.2-2.2-1.4-3h-0.3v2c0.4,0.2,0.7,0.4,0.7,0.4l-0.1,0.6
		h-4.1l-0.1-0.6c0,0,0.4-0.3,0.9-0.4V175h-0.8l-0.1-0.8c0,0,0.8-0.6,2.2-0.6c1,0,1.5,0.3,1.5,0.3v6.2l1-0.1L419.9,178.3z"/>
	<path class="st5" d="M423,184.3l-0.1-0.6c0,0,0.4-0.3,0.9-0.4V175h-0.8l-0.1-0.8c0,0,0.8-0.6,2.2-0.6c1,0,1.5,0.3,1.5,0.3v9.3
		c0.5,0.1,0.9,0.4,0.9,0.4l-0.1,0.6H423z"/>
	<path class="st5" d="M427.8,180.8c0-2.1,1.6-3.7,3.8-3.7s3.5,1.3,3.5,3.1c0,0.6-0.1,0.8-0.1,0.8h-4.3c0.1,1.3,0.8,2,1.9,2
		c0.9,0,1.6-0.8,1.6-0.8l0.7,0.7c0,0-1,1.5-3.1,1.5C429.4,184.4,427.8,182.9,427.8,180.8z M430.7,179.8h1.8
		c-0.1-1.1-0.5-1.5-0.9-1.5S430.8,178.6,430.7,179.8z"/>
	<path class="st5" d="M435.9,184.3l-0.1-0.6c0,0,0.4-0.3,0.9-0.4v-4.6h-0.8l-0.1-0.8c0,0,0.8-0.6,2.2-0.6c0.9,0,1.3,0.3,1.3,0.3v1.5
		h0.1c0,0,0.4-1.8,2-1.8c0.3,0,0.6,0.1,0.6,0.1v2.3h-2l-0.6,0.7v3c0.6,0.1,1.1,0.4,1.1,0.4l-0.1,0.6H435.9z"/>
</g>
<g>
	<path class="st5" d="M107.9,161c0,0-0.5,0.4-1.1,0.5v7.3c0.6,0.1,1.1,0.5,1.1,0.5l-0.1,0.8h-4.9l-0.1-0.8c0,0,0.5-0.4,1.1-0.5v-7.3
		c-0.6-0.1-1.1-0.5-1.1-0.5l0.1-0.8h4.9L107.9,161z"/>
	<path class="st5" d="M110.7,163.6l0.2,1.1v4.1c0.6,0.1,1.1,0.5,1.1,0.5l-0.1,0.8h-3.4l-0.1-0.8c0,0,0.5-0.4,1.1-0.5v-7.3
		c-0.6-0.1-1.1-0.5-1.1-0.5l0.1-0.8h4.3l1.8,4v1h0.1l2.2-5h4l0.1,0.8c0,0-0.5,0.4-1.1,0.5v7.3c0.6,0.1,1.1,0.5,1.1,0.5l-0.1,0.8
		h-4.9l-0.1-0.8c0,0,0.5-0.4,1.1-0.5v-4.1l0.2-1.1H117l-2.4,5.3h-1.4l-2.4-5.3H110.7z"/>
	<path class="st5" d="M121.4,169.3c0,0,0.5-0.4,1.1-0.5v-7.3c-0.6-0.1-1.1-0.5-1.1-0.5l0.1-0.8h4.1c3.6,0,5.5,2,5.5,4.8
		c0,2.9-2.1,5-5.5,5h-4.1L121.4,169.3z M125.5,168.7L125.5,168.7c1.3,0,2.3-1.1,2.3-3.6c0-2.5-1.1-3.6-2.2-3.6h-0.1V168.7z"/>
	<path class="st5" d="M132.6,171.8l-1.1-0.5l5.7-12.4l1.1,0.5L132.6,171.8z"/>
</g>
<g>
	<path class="st5" d="M100.5,183.6c0,0-1.1,0.8-3.5,0.8c-3.5,0-5.5-2-5.5-4.9c0-3.1,2.1-5.2,5.5-5.2c2,0,3.3,0.7,3.3,0.7l-0.2,2.7
		H99c0,0-0.6-0.8-0.7-2c0,0-0.4-0.2-1-0.2c-1.3,0-2.5,1.1-2.5,3.8c0,2.6,1.1,3.7,2.3,3.7c0.4,0,0.6-0.1,0.6-0.1v-2.2
		c-0.6-0.1-1.1-0.5-1.1-0.5l0.1-0.8h4.5l0.1,0.8c0,0-0.4,0.3-0.9,0.5V183.6z"/>
	<path class="st5" d="M102,184.3l-0.1-0.6c0,0,0.4-0.3,0.9-0.4v-4.6h-0.8l-0.1-0.8c0,0,0.8-0.6,2.2-0.6c0.9,0,1.3,0.3,1.3,0.3v1.5
		h0.1c0,0,0.4-1.8,2-1.8c0.3,0,0.6,0.1,0.6,0.1v2.3h-2l-0.6,0.7v3c0.6,0.1,1.1,0.4,1.1,0.4l-0.1,0.6H102z"/>
	<path class="st5" d="M115.7,182.9h0.8l0.1,0.8c0,0-0.8,0.6-2.2,0.6c-0.9,0-1.3-0.3-1.3-0.3v-0.8h-0.1c0,0-0.7,1.1-2.1,1.1
		c-1.3,0-2.2-0.8-2.2-2c0-1.2,1-2.2,3-2.2c0.7,0,1.3,0.1,1.3,0.1v-1.2c0-0.6-0.4-1-1-1c-0.2,0-0.5,0.1-0.5,0.1l-0.1,1.5h-2
		c0,0-0.2-0.2-0.2-0.7c0-1.1,1-2,3.2-2c2.2,0,3.4,1.1,3.4,2.5V182.9z M112.9,182.2v-1h-0.4c-0.8,0-1.1,0.4-1.1,0.8
		c0,0.4,0.3,0.7,0.7,0.7C112.6,182.8,112.9,182.2,112.9,182.2z"/>
	<path class="st5" d="M122.1,184.3l-0.1-0.6c0,0,0.4-0.3,0.9-0.4v-4.7h-2.2v4.7c0.5,0.1,0.9,0.4,0.9,0.4l-0.1,0.6h-4.3l-0.1-0.6
		c0,0,0.4-0.3,0.9-0.4v-4.7h-0.8l-0.2-0.9c0,0,0.5-0.4,1.1-0.4V177c0-2,1.4-3.4,3.9-3.4c3.1,0,3.8,2,3.8,2s-0.4,0.8-1.8,0.8
		c-0.7,0-1.2-0.2-1.2-0.2s-0.4-1.1-1.7-1.1c-1,0-1.5,0.6-1.8,1.3l1.1,1h5.2v6c0.5,0.1,0.9,0.4,0.9,0.4l-0.1,0.6H122.1z"/>
	<path class="st5" d="M132.4,178.3c-0.4-0.1-0.8-0.4-0.8-0.4l0.1-0.6h2.8l0.1,0.6c0,0-0.4,0.3-0.8,0.4l-1.3,1.8
		c0.4,0.9,1.4,2.5,2,3.1c0.5,0.1,0.8,0.4,0.8,0.4l-0.1,0.6h-3.3c-0.5-0.7-1.2-2.2-1.4-3h-0.3v2c0.4,0.2,0.7,0.4,0.7,0.4l-0.1,0.6
		h-4.1l-0.1-0.6c0,0,0.4-0.3,0.9-0.4V175h-0.8l-0.1-0.8c0,0,0.8-0.6,2.2-0.6c1,0,1.5,0.3,1.5,0.3v6.2l1-0.1L132.4,178.3z"/>
	<path class="st5" d="M135.6,180.8c0-2.1,1.6-3.7,3.8-3.7c2.2,0,3.5,1.3,3.5,3.1c0,0.6-0.1,0.8-0.1,0.8h-4.3c0.1,1.3,0.8,2,1.9,2
		c0.9,0,1.6-0.8,1.6-0.8l0.7,0.7c0,0-1,1.5-3.1,1.5C137.1,184.4,135.6,182.9,135.6,180.8z M138.4,179.8h1.8
		c-0.1-1.1-0.5-1.5-0.9-1.5C138.9,178.2,138.5,178.6,138.4,179.8z"/>
	<path class="st5" d="M143.6,184.3l-0.1-0.6c0,0,0.4-0.3,0.9-0.4v-4.6h-0.8l-0.1-0.8c0,0,0.8-0.6,2.2-0.6c0.9,0,1.3,0.3,1.3,0.3v1.5
		h0.1c0,0,0.4-1.8,2-1.8c0.3,0,0.6,0.1,0.6,0.1v2.3h-2l-0.6,0.7v3c0.6,0.1,1.1,0.4,1.1,0.4l-0.1,0.6H143.6z"/>
</g>
<path class="st6" d="M375.6,84.1c-22,0-42.1,8.4-57.2,22.1c17.7,15.6,28.9,38.4,28.9,63.8c0,24.9-10.7,47.3-27.8,62.9
	c15,13.2,34.6,21.2,56.2,21.2c47,0,85-38.1,85-85S422.6,84.1,375.6,84.1z"/>
<path class="st6" d="M177.2,170.1c0-25.4,11.2-48.2,28.9-63.8c-15.1-13.8-35.2-22.1-57.2-22.1c-47,0-85,38.1-85,85s38.1,85,85,85
	c21.5,0,41.2-8,56.2-21.2C187.9,217.4,177.2,195,177.2,170.1z"/>
<path class="st7" d="M318.4,106.2c-17.1,15.6-27.8,38-27.8,62.9c0,25.4,11.2,48.2,28.9,63.8"/>
<path class="st7" d="M205,233c17.7-15.6,28.9-38.4,28.9-63.8c0-24.9-10.7-47.3-27.8-62.9"/>
<path class="st6" d="M318.4,106.2c-15-13.2-34.6-21.2-56.2-21.2c-21.5,0-41.2,8-56.2,21.2c-17.7,15.6-28.9,38.4-28.9,63.8
	c0,24.9,10.7,47.3,27.8,62.9c15.1,13.8,35.2,22.1,57.2,22.1s42.1-8.4,57.2-22.1c17.1-15.6,27.8-38,27.8-62.9
	C347.2,144.6,336.1,121.8,318.4,106.2z"/>
<g>
	<path class="st5" d="M225.3,311.4c0,0,0.4-0.3,1-0.4v-8.1c-0.6-0.1-1-0.4-1-0.4l0.1-0.4h6.4l0.1,2.5l-0.5,0.1c0,0-0.5-0.8-0.6-1.8
		h-3.5v3.9l3.1-0.2v1l-3.1-0.2v3.9c0.6,0.1,1.1,0.4,1.1,0.4l-0.1,0.4h-3L225.3,311.4z"/>
	<path class="st5" d="M233.4,311.4c0,0,0.4-0.3,1-0.4v-8.1c-0.6-0.1-1-0.4-1-0.4l0.1-0.4h3.4c2.2,0,3.4,1.3,3.4,2.9
		c0,2.4-2.4,2.7-2.4,2.7v0.1l2,3.4c0.6,0.1,1.1,0.4,1.1,0.4l-0.1,0.4h-1.8l-2.4-4.1h-1.3v3.3c0.6,0.1,1.1,0.4,1.1,0.4l-0.1,0.4h-3
		L233.4,311.4z M236.9,302.7h-1.5v4.3h1.5c1.5,0,2.3-0.8,2.3-2.1C239.2,303.5,238.4,302.7,236.9,302.7z"/>
	<path class="st5" d="M246.8,312c-2.6,0-4.6-2-4.6-4.9c0-3.2,2-5.2,4.6-5.2c2.6,0,4.6,2,4.6,4.9C251.4,309.9,249.4,312,246.8,312z
		 M246.8,311.3c2,0,3.5-1.5,3.5-4.3s-1.5-4.3-3.5-4.3c-2,0-3.5,1.5-3.5,4.3S244.8,311.3,246.8,311.3z"/>
	<path class="st5" d="M260.8,311.6l-0.8,0.3l-4.9-8.1H255v7.2c0.6,0.1,1,0.4,1,0.4l-0.1,0.4h-2.7l-0.1-0.4c0,0,0.4-0.3,1-0.4v-8.1
		c-0.6-0.1-1-0.4-1-0.4l0.1-0.4h2l4.7,7.8h0.1v-6.9c-0.6-0.1-1-0.4-1-0.4l0.1-0.4h2.7l0.1,0.4c0,0-0.4,0.3-1,0.4V311.6z"/>
	<path class="st5" d="M264.1,302.7c-0.1,1-0.6,1.9-0.6,1.9l-0.5-0.1l0.1-2.5h7.6l0.1,2.5l-0.5,0.1c0,0-0.5-0.9-0.6-1.9h-2.3v8.3
		c0.6,0.1,1,0.4,1,0.4l-0.1,0.4h-2.9l-0.1-0.4c0,0,0.4-0.3,1-0.4v-8.3H264.1z"/>
	<path class="st5" d="M272.2,311.8l-0.1-0.4c0,0,0.4-0.3,1-0.4v-8.1c-0.6-0.1-1-0.4-1-0.4l0.1-0.4h6.5l0.1,2.5l-0.5,0.1
		c0,0-0.5-0.9-0.6-1.9h-3.6v3.8l3.2-0.2v1l-3.2-0.2v4.1h3.6c0.2-0.8,0.7-1.6,0.7-1.6l0.5,0.1l-0.2,2.2H272.2z"/>
	<path class="st5" d="M288.2,311.6l-0.8,0.3l-4.9-8.1h-0.1v7.2c0.6,0.1,1,0.4,1,0.4l-0.1,0.4h-2.7l-0.1-0.4c0,0,0.4-0.3,1-0.4v-8.1
		c-0.6-0.1-1-0.4-1-0.4l0.1-0.4h2l4.7,7.8h0.1v-6.9c-0.6-0.1-1-0.4-1-0.4l0.1-0.4h2.7l0.1,0.4c0,0-0.4,0.3-1,0.4V311.6z"/>
	<path class="st5" d="M294.3,302c2.9,0,4.7,1.8,4.7,4.8c0,3.2-1.8,5-4.7,5h-3.4l-0.1-0.4c0,0,0.4-0.3,1-0.4v-8.1
		c-0.6-0.1-1-0.4-1-0.4l0.1-0.4H294.3z M294.3,302.7h-1.5v8.4h1.5c2.2,0,3.6-1.4,3.6-4.2S296.5,302.7,294.3,302.7z"/>
</g>
<g>
	<path class="st5" d="M349.1,306.6c0,0,2.2,0.3,2.2,2.5c0,1.6-1.1,2.7-3.6,2.7H344l-0.1-0.4c0,0,0.4-0.3,1-0.4v-8.1
		c-0.6-0.1-1-0.4-1-0.4l0.1-0.4h3.6c2.2,0,3.3,1,3.3,2.5C350.9,306.3,349.1,306.6,349.1,306.6L349.1,306.6z M346,306.3h1.6
		c1.5,0,2.2-0.8,2.2-1.8c0-1.1-0.7-1.8-2.2-1.8H346V306.3z M346,311.1h1.8c1.7,0,2.5-0.8,2.5-2s-0.8-2-2.5-2H346V311.1z"/>
	<path class="st5" d="M356,302h1.1l3.2,9c0.6,0.1,1,0.4,1,0.4l-0.1,0.4h-3l-0.1-0.4c0,0,0.4-0.3,0.9-0.4l-0.8-2.4h-3.6l-0.8,2.4
		c0.5,0.1,0.8,0.4,0.8,0.4l-0.1,0.4h-2.7l-0.1-0.4c0,0,0.4-0.3,1.1-0.4L356,302z M354.8,307.9h3.2l-1.6-4.4h-0.1L354.8,307.9z"/>
	<path class="st5" d="M366.4,302.6c-2,0-3.6,1.5-3.6,4.3s1.5,4.3,3.6,4.3c1.3,0,1.8-0.3,1.8-0.3c0.1-1.3,0.5-2.2,0.5-2.2h0.5
		l0.1,2.7c0,0-0.8,0.5-2.9,0.5c-2.7,0-4.7-2-4.7-4.9c0-3.2,2-5.2,4.7-5.2c2,0,2.9,0.5,2.9,0.5l-0.1,2.6h-0.5c0,0-0.4-0.8-0.6-2.1
		C368.1,302.8,367.5,302.6,366.4,302.6z"/>
	<path class="st5" d="M373.1,306.6l1.1-0.1l2.9-3.6c-0.6-0.1-0.8-0.4-0.8-0.4l0.1-0.4h2.5l0.1,0.4c0,0-0.4,0.3-0.9,0.4l-2.9,3.6
		c0.7,1.3,1.6,2.8,3.1,4.6c0.6,0.1,1.1,0.4,1.1,0.4l-0.1,0.4h-1.8c-1.3-1.6-2.3-3-3.2-4.6l-1.2-0.1v3.8c0.6,0.1,1,0.4,1,0.4
		l-0.1,0.4h-2.9l-0.1-0.4c0,0,0.4-0.3,1-0.4v-8.1c-0.6-0.1-1-0.4-1-0.4l0.1-0.4h2.9l0.1,0.4c0,0-0.4,0.3-1,0.4V306.6z"/>
	<path class="st5" d="M380.4,311.8l-0.1-0.4c0,0,0.4-0.3,1-0.4v-8.1c-0.6-0.1-1-0.4-1-0.4l0.1-0.4h6.5l0.1,2.5l-0.5,0.1
		c0,0-0.5-0.9-0.6-1.9h-3.6v3.8l3.2-0.2v1l-3.2-0.2v4.1h3.6c0.2-0.8,0.7-1.6,0.7-1.6l0.5,0.1l-0.2,2.2H380.4z"/>
	<path class="st5" d="M396.4,311.6l-0.8,0.3l-4.9-8.1h-0.1v7.2c0.6,0.1,1,0.4,1,0.4l-0.1,0.4h-2.7l-0.1-0.4c0,0,0.4-0.3,1-0.4v-8.1
		c-0.6-0.1-1-0.4-1-0.4l0.1-0.4h2l4.7,7.8h0.1v-6.9c-0.6-0.1-1-0.4-1-0.4l0.1-0.4h2.7l0.1,0.4c0,0-0.4,0.3-1,0.4V311.6z"/>
	<path class="st5" d="M402.5,302c2.9,0,4.7,1.8,4.7,4.8c0,3.2-1.8,5-4.7,5H399l-0.1-0.4c0,0,0.4-0.3,1-0.4v-8.1
		c-0.6-0.1-1-0.4-1-0.4l0.1-0.4H402.5z M402.5,302.7H401v8.4h1.5c2.2,0,3.6-1.4,3.6-4.2S404.6,302.7,402.5,302.7z"/>
</g>
<g>
	<path class="st8" d="M230.7,168.8c0.7,0.1,1.3,0.5,1.3,0.5l-0.1,0.8h-5.2l-0.1-0.8c0,0,0.5-0.4,1.1-0.5v-7.3
		c-0.6-0.1-1.1-0.5-1.1-0.5l0.1-0.8h7.8l0.1,3l-1.1,0.1c0,0-0.6-0.6-0.9-1.7h-1.9v2.9l2.3-0.4v2.2l-2.3-0.4V168.8z"/>
	<path class="st8" d="M234.8,170.1l-0.1-0.6c0,0,0.4-0.3,0.9-0.4v-4.6h-0.8l-0.1-0.8c0,0,0.8-0.6,2.2-0.6c0.9,0,1.3,0.3,1.3,0.3v1.5
		h0.1c0,0,0.4-1.8,2-1.8c0.3,0,0.6,0.1,0.6,0.1v2.3h-2l-0.6,0.7v3c0.6,0.1,1.1,0.4,1.1,0.4l-0.1,0.6H234.8z"/>
	<path class="st8" d="M245.4,170.2c-2.5,0-4-1.5-4-3.6c0-2.1,1.6-3.7,4-3.7c2.5,0,4,1.5,4,3.6C249.4,168.6,247.8,170.2,245.4,170.2z
		 M245.4,164.1c-0.6,0-1.1,0.6-1.1,2.5s0.6,2.5,1.1,2.5c0.6,0,1.1-0.6,1.1-2.5S245.9,164.1,245.4,164.1z"/>
	<path class="st8" d="M253.6,165.1v3.9c0.4,0.2,0.6,0.4,0.6,0.4l-0.1,0.6h-3.9l-0.1-0.6c0,0,0.4-0.3,0.9-0.4v-4.6h-0.8l-0.1-0.8
		c0,0,0.8-0.6,2.2-0.6c0.9,0,1.3,0.3,1.3,0.3v0.8h0.1c0,0,0.7-1.1,2.1-1.1c1.3,0,2.2,0.9,2.2,2.2v3.9c0.5,0.1,0.9,0.4,0.9,0.4
		l-0.1,0.6h-3.9l-0.1-0.6c0,0,0.2-0.2,0.6-0.4v-3.6c0-0.6-0.3-0.8-0.7-0.8C254,164.5,253.6,165.1,253.6,165.1z"/>
	<path class="st8" d="M259.9,164.3H259l-0.2-0.9c0,0,0.5-0.4,1.1-0.4l0.9-1.7h1.8v1.8h1.6v1.3h-1.6v3.2c0,0.7,0.4,1.1,0.8,1.1
		s1-0.4,1-0.4l0.5,0.8c0,0-0.9,1.1-2.7,1.1c-1.5,0-2.3-0.8-2.3-2.1V164.3z"/>
	<path class="st8" d="M265.4,166.6c0-2.1,1.6-3.7,3.8-3.7c2.2,0,3.5,1.3,3.5,3.1c0,0.6-0.1,0.8-0.1,0.8h-4.3c0.1,1.3,0.8,2,1.9,2
		c0.9,0,1.6-0.8,1.6-0.8l0.7,0.7c0,0-1,1.5-3.1,1.5C266.9,170.2,265.4,168.7,265.4,166.6z M268.3,165.6h1.8
		c-0.1-1.1-0.5-1.5-0.9-1.5C268.8,164.1,268.3,164.5,268.3,165.6z"/>
	<path class="st8" d="M277,165.1v3.9c0.4,0.2,0.6,0.4,0.6,0.4l-0.1,0.6h-3.9l-0.1-0.6c0,0,0.4-0.3,0.9-0.4v-4.6h-0.8l-0.1-0.8
		c0,0,0.8-0.6,2.2-0.6c0.9,0,1.3,0.3,1.3,0.3v0.8h0.1c0,0,0.7-1.1,2.1-1.1c1.3,0,2.2,0.9,2.2,2.2v3.9c0.5,0.1,0.9,0.4,0.9,0.4
		l-0.1,0.6h-3.9l-0.1-0.6c0,0,0.2-0.2,0.6-0.4v-3.6c0-0.6-0.3-0.8-0.7-0.8C277.3,164.5,277,165.1,277,165.1z"/>
	<path class="st8" d="M290.2,168.7h0.8l0.1,0.8c0,0-0.8,0.6-2.2,0.6c-0.9,0-1.3-0.3-1.3-0.3v-0.8h-0.1c0,0-0.7,1.1-2.1,1.1
		c-1.5,0-2.7-1.3-2.7-3.6c0-2.3,1.4-3.7,3.2-3.7c1.1,0,1.7,0.8,1.7,0.8h0.1l-0.1-0.8v-2.1h-0.8l-0.1-0.8c0,0,0.8-0.6,2.2-0.6
		c1,0,1.5,0.3,1.5,0.3V168.7z M287.5,166.1c0-1.2-0.5-1.7-1-1.7s-1,0.5-1,2.1s0.5,2.1,1.1,2.1c0.6,0,0.9-0.6,0.9-0.6V166.1z"/>
	<path class="st8" d="M291.7,165.5h4.2v1.4h-4.2V165.5z"/>
</g>
<g>
	<path class="st5" d="M127.3,302c2.9,0,4.7,1.8,4.7,4.8c0,3.2-1.8,5-4.7,5h-3.4l-0.1-0.4c0,0,0.4-0.3,1-0.4v-8.1
		c-0.6-0.1-1-0.4-1-0.4l0.1-0.4H127.3z M127.3,302.7h-1.5v8.4h1.5c2.2,0,3.6-1.4,3.6-4.2C130.9,304.1,129.5,302.7,127.3,302.7z"/>
	<path class="st5" d="M133.8,311.8l-0.1-0.4c0,0,0.4-0.3,1-0.4v-8.1c-0.6-0.1-1-0.4-1-0.4l0.1-0.4h6.5l0.1,2.5l-0.5,0.1
		c0,0-0.5-0.9-0.6-1.9h-3.6v3.8l3.2-0.2v1l-3.2-0.2v4.1h3.6c0.2-0.8,0.7-1.6,0.7-1.6l0.5,0.1l-0.2,2.2H133.8z"/>
	<path class="st5" d="M142.7,308.8h0.5c0,0,0.4,0.8,0.5,2.1c0,0,0.8,0.4,1.6,0.4c1.3,0,2.2-0.9,2.2-2c0-2.3-4.8-2.1-4.8-5
		c0-1.3,1.1-2.4,2.9-2.4c1.6,0,2.5,0.5,2.5,0.5l-0.1,2.5h-0.5c0,0-0.4-0.8-0.5-2c0,0-0.4-0.3-1.4-0.3c-1.1,0-1.8,0.7-1.8,1.5
		c0,2.1,4.8,2,4.8,5c0,1.6-1.2,2.8-3.2,2.8c-1.7,0-2.7-0.6-2.7-0.6L142.7,308.8z"/>
	<path class="st5" d="M153.3,302.4c0,0-0.4,0.3-1,0.4v8.1c0.6,0.1,1,0.4,1,0.4l-0.1,0.4h-2.9l-0.1-0.4c0,0,0.4-0.3,1-0.4v-8.1
		c-0.6-0.1-1-0.4-1-0.4l0.1-0.4h2.9L153.3,302.4z"/>
	<path class="st5" d="M162,310.7v-2.2c-0.6-0.1-1.1-0.4-1.1-0.4l0.1-0.4h2.8l0.1,0.4c0,0-0.4,0.3-0.9,0.4v2.5c0,0-1.1,1-3.2,1
		c-2.7,0-4.7-2-4.7-4.9c0-3.2,2-5.2,4.7-5.2c2,0,2.9,0.5,2.9,0.5l-0.1,2.6h-0.5c0,0-0.4-0.8-0.6-2.1c0,0-0.6-0.3-1.8-0.3
		c-2,0-3.6,1.5-3.6,4.3c0,2.8,1.5,4.3,3.6,4.3C161.3,311.3,162,310.7,162,310.7z"/>
	<path class="st5" d="M172.9,311.6l-0.8,0.3l-4.9-8.1h-0.1v7.2c0.6,0.1,1,0.4,1,0.4l-0.1,0.4h-2.7l-0.1-0.4c0,0,0.4-0.3,1-0.4v-8.1
		c-0.6-0.1-1-0.4-1-0.4l0.1-0.4h2l4.7,7.8h0.1v-6.9c-0.6-0.1-1-0.4-1-0.4l0.1-0.4h2.7l0.1,0.4c0,0-0.4,0.3-1,0.4V311.6z"/>
</g>
<g>
	<path class="st8" d="M223.7,184.3l-0.1-0.8c0,0,0.5-0.4,1.1-0.5v-7.3c-0.6-0.1-1.1-0.5-1.1-0.5l0.1-0.8h7.8l0.1,3l-1.1,0.1
		c0,0-0.6-0.6-0.9-1.7h-2v2.6l2.4-0.4v2.2l-2.4-0.4v2.9h2c0.4-1.1,1-1.7,1-1.7l1.1,0.1l-0.2,3H223.7z"/>
	<path class="st8" d="M236.4,179.3v3.9c0.3,0.2,0.6,0.4,0.6,0.4l-0.1,0.6h-3.9l-0.1-0.6c0,0,0.4-0.3,0.9-0.4v-4.6h-0.8l-0.1-0.8
		c0,0,0.8-0.6,2.2-0.6c0.9,0,1.3,0.3,1.3,0.3v0.8h0.1c0,0,0.7-1.1,2.1-1.1c1.3,0,2.2,0.9,2.2,2.2v3.9c0.5,0.1,0.9,0.4,0.9,0.4
		l-0.1,0.6h-3.9l-0.1-0.6c0,0,0.2-0.2,0.6-0.4v-3.6c0-0.6-0.3-0.8-0.7-0.8C236.8,178.7,236.4,179.3,236.4,179.3z"/>
	<path class="st8" d="M242.6,178.5h-0.8l-0.2-0.9c0,0,0.5-0.4,1.1-0.4l0.9-1.7h1.8v1.8h1.6v1.3h-1.6v3.2c0,0.7,0.4,1.1,0.8,1.1
		s1-0.4,1-0.4l0.5,0.8c0,0-0.9,1.1-2.7,1.1c-1.5,0-2.3-0.8-2.3-2.1V178.5z"/>
	<path class="st8" d="M255,184.3l-1-3.3v-1h-0.1l-1.3,4.3h-2.2l-2-6c-0.5-0.1-0.8-0.4-0.8-0.4l0.1-0.6h4.2l0.1,0.6
		c0,0-0.4,0.3-0.8,0.4l0.7,2.2v1h0.1l1.3-4.3h2.2l1,3.3v1h0.1l1.1-3.2c-0.4-0.1-0.8-0.4-0.8-0.4l0.1-0.6h2.8l0.1,0.6
		c0,0-0.4,0.3-0.8,0.4l-2,6H255z"/>
	<path class="st8" d="M260.3,184.3l-0.1-0.6c0,0,0.4-0.3,0.9-0.4v-4.5h-0.8l-0.1-0.8c0,0,0.8-0.6,2.2-0.6c1,0,1.5,0.3,1.5,0.3v5.6
		c0.5,0.1,0.9,0.4,0.9,0.4l-0.1,0.6H260.3z M262.4,176.8c-0.8,0-1.5-0.6-1.5-1.3s0.6-1.3,1.5-1.3c0.8,0,1.5,0.6,1.5,1.3
		S263.2,176.8,262.4,176.8z"/>
	<path class="st8" d="M265.1,180.8c0-2.1,1.6-3.7,4.1-3.7c2,0,2.9,1,2.9,2.1c0,0.5-0.2,0.9-0.2,0.9h-1.8l-0.3-1.8
		c0,0-0.1-0.1-0.3-0.1c-0.8,0-1.5,0.7-1.5,2.3c0,1.6,0.8,2.5,1.9,2.5c1,0,1.7-0.8,1.7-0.8l0.7,0.7c0,0-1,1.5-3.2,1.5
		C266.7,184.4,265.1,182.9,265.1,180.8z"/>
	<path class="st8" d="M278.6,178.3c-0.4-0.1-0.8-0.4-0.8-0.4l0.1-0.6h2.8l0.1,0.6c0,0-0.3,0.3-0.8,0.4l-1.3,1.8
		c0.4,0.9,1.4,2.5,2,3.1c0.5,0.1,0.8,0.4,0.8,0.4l-0.1,0.6h-3.3c-0.5-0.7-1.2-2.2-1.4-3h-0.3v2c0.4,0.2,0.7,0.4,0.7,0.4l-0.1,0.6
		H273l-0.1-0.6c0,0,0.4-0.3,0.9-0.4V175h-0.8l-0.1-0.8c0,0,0.8-0.6,2.2-0.6c1,0,1.5,0.3,1.5,0.3v6.2l1-0.1L278.6,178.3z"/>
	<path class="st8" d="M281.8,184.3l-0.1-0.6c0,0,0.4-0.3,0.9-0.4V175h-0.8l-0.1-0.8c0,0,0.8-0.6,2.2-0.6c1,0,1.5,0.3,1.5,0.3v9.3
		c0.5,0.1,0.9,0.4,0.9,0.4l-0.1,0.6H281.8z"/>
	<path class="st8" d="M286.6,180.8c0-2.1,1.6-3.7,3.8-3.7s3.5,1.3,3.5,3.1c0,0.6-0.1,0.8-0.1,0.8h-4.3c0.1,1.3,0.8,2,1.9,2
		c0.9,0,1.6-0.8,1.6-0.8l0.7,0.7c0,0-1,1.5-3.1,1.5C288.1,184.4,286.6,182.9,286.6,180.8z M289.5,179.8h1.8
		c-0.1-1.1-0.5-1.5-0.9-1.5S289.5,178.6,289.5,179.8z"/>
	<path class="st8" d="M294.6,184.3l-0.1-0.6c0,0,0.4-0.3,0.9-0.4v-4.6h-0.8l-0.1-0.8c0,0,0.8-0.6,2.2-0.6c0.9,0,1.3,0.3,1.3,0.3v1.5
		h0.1c0,0,0.4-1.8,2-1.8c0.3,0,0.6,0.1,0.6,0.1v2.3h-2l-0.6,0.7v3c0.6,0.1,1,0.4,1,0.4l-0.1,0.6H294.6z"/>
</g>
<path class="st6" d="M318.4,106.2c-15-13.2-34.6-21.2-56.2-21.2c-21.5,0-41.2,8-56.2,21.2c-17.7,15.6-28.9,38.4-28.9,63.8
	c0,24.9,10.7,47.3,27.8,62.9c15.1,13.8,35.2,22.1,57.2,22.1s42.1-8.4,57.2-22.1c17.1-15.6,27.8-38,27.8-62.9
	C347.2,144.6,336.1,121.8,318.4,106.2z"/>
<g>
	<path class="st5" d="M252.5,263.7c-0.4-0.1-0.7-0.3-0.7-0.3l0.1-0.4h2.5l0.1,0.4c0,0-0.2,0.2-0.6,0.3v2.1l0.7-0.1l1.5-2
		c-0.4-0.1-0.6-0.3-0.6-0.3l0.1-0.4h2.1l0.1,0.4c0,0-0.3,0.2-0.7,0.3l-1.7,2c0.5,0.9,1.2,2,1.9,2.9c0.4,0.1,0.7,0.3,0.7,0.3
		l-0.1,0.4h-1.8c-0.7-0.9-1.3-2-1.7-2.8l-0.5,0v2.2c0.4,0.1,0.6,0.3,0.6,0.3l-0.1,0.4h-2.5l-0.1-0.4c0,0,0.3-0.2,0.7-0.3V263.7z"/>
	<path class="st5" d="M258.8,263.2h-0.6l-0.1-0.4c0,0,0.5-0.4,1.2-0.4c0.5,0,0.8,0.2,0.8,0.2v6c0.4,0.1,0.6,0.3,0.6,0.3l-0.1,0.4
		h-2.3l-0.1-0.4c0,0,0.2-0.2,0.6-0.3V263.2z"/>
	<path class="st5" d="M261.6,265.6H261l-0.1-0.4c0,0,0.5-0.4,1.2-0.4c0.5,0,0.8,0.2,0.8,0.2v2.9c0,0.5,0.3,0.8,0.7,0.8
		c0.5,0,0.8-0.5,0.8-0.5v-2.6h-0.6l-0.1-0.4c0,0,0.5-0.4,1.2-0.4c0.5,0,0.8,0.2,0.8,0.2v3.6h0.6l0.1,0.4c0,0-0.5,0.4-1.2,0.4
		c-0.5,0-0.7-0.2-0.7-0.2v-0.5h0c0,0-0.5,0.7-1.3,0.7c-0.8,0-1.4-0.6-1.4-1.4V265.6z"/>
	<path class="st5" d="M268.5,268.7c0.5,0.1,0.7,0.3,0.7,0.3l-0.1,0.4h-2.4l-0.1-0.4c0,0,0.2-0.2,0.6-0.3v-3.2h-0.6l-0.1-0.4
		c0,0,0.3-0.2,0.7-0.3v-0.6c0-1,0.6-1.6,1.4-1.6c0.4,0,0.6,0.1,0.6,0.1v1h-1.4v0.3l0.5,0.9h1.5l0.3-1.1h1v1.1h1.1v0.6h-1.1v2.6
		c0,0.4,0.2,0.6,0.5,0.6c0.4,0,0.7-0.3,0.7-0.3l0.2,0.4c0,0-0.6,0.6-1.5,0.6c-0.8,0-1.2-0.5-1.2-1.4v-2.6h-1.5V268.7z"/>
	<path class="st5" d="M251.9,275v2.7c0.3,0.1,0.5,0.3,0.5,0.3l-0.1,0.4h-2.2l-0.1-0.4c0,0,0.2-0.2,0.6-0.3v-5.4H250l-0.1-0.4
		c0,0,0.5-0.4,1.2-0.4c0.5,0,0.8,0.2,0.8,0.2v2.3l-0.1,0.5h0c0,0,0.5-0.7,1.4-0.7c0.8,0,1.4,0.6,1.4,1.4v2.4
		c0.4,0.1,0.6,0.3,0.6,0.3l-0.1,0.4H253l-0.1-0.4c0,0,0.1-0.1,0.5-0.3v-2.3c0-0.5-0.3-0.8-0.7-0.8C252.3,274.6,251.9,275,251.9,275z
		"/>
	<path class="st5" d="M257.1,276.1c0,0.9,0.6,1.5,1.3,1.5c0.7,0,1.1-0.5,1.1-0.5l0.3,0.4c0,0-0.6,0.9-1.8,0.9
		c-1.4,0-2.3-0.9-2.3-2.3c0-1.3,1-2.3,2.2-2.3c1.2,0,2,0.8,2,2.1v0.2H257.1z M257.2,275.5h1.6c0-0.8-0.4-1.1-0.8-1.1
		C257.7,274.4,257.3,274.8,257.2,275.5z"/>
	<path class="st5" d="M261.2,274.6h-0.6l-0.1-0.4c0,0,0.5-0.4,1.2-0.4c0.5,0,0.8,0.2,0.8,0.2v2.9c0,0.5,0.3,0.8,0.7,0.8
		c0.5,0,0.8-0.5,0.8-0.5v-2.6h-0.6l-0.1-0.4c0,0,0.5-0.4,1.2-0.4c0.5,0,0.8,0.2,0.8,0.2v3.6h0.6l0.1,0.4c0,0-0.5,0.4-1.2,0.4
		c-0.5,0-0.7-0.2-0.7-0.2v-0.5h0c0,0-0.5,0.7-1.3,0.7c-0.8,0-1.4-0.6-1.4-1.4V274.6z"/>
	<path class="st5" d="M268,277c0,0.4,0.2,0.6,0.5,0.6c0.4,0,0.7-0.3,0.7-0.3l0.2,0.4c0,0-0.6,0.6-1.5,0.6c-0.8,0-1.2-0.5-1.2-1.4
		v-2.6h-0.6l-0.1-0.4c0,0,0.3-0.2,0.7-0.3l0.3-1h1v1.1h1.1v0.6H268V277z"/>
	<path class="st5" d="M271.3,276.1c0,0.9,0.6,1.5,1.3,1.5c0.7,0,1.1-0.5,1.1-0.5l0.3,0.4c0,0-0.6,0.9-1.8,0.9
		c-1.4,0-2.3-0.9-2.3-2.3c0-1.3,1-2.3,2.2-2.3c1.2,0,2,0.8,2,2.1v0.2H271.3z M271.3,275.5h1.6c0-0.8-0.4-1.1-0.8-1.1
		C271.8,274.4,271.4,274.8,271.3,275.5z"/>
</g>
<g>
</g>
<g>
	<path class="st8" d="M193.9,42.1c0.5,0,0.8,0.1,0.8,0.1s0.2-0.8,1-0.8c0.4,0,0.6,0.2,0.6,0.2v0.8h-1.3v0c0,0,0.9,0.3,0.9,1.3
		c0,0.9-0.7,1.6-2,1.6c-0.5,0-0.9-0.1-0.9-0.1v0.7h1.5c1.3,0,1.8,0.6,1.8,1.4c0,0.9-0.8,1.7-2.4,1.7c-1.7,0-2.3-0.7-2.3-1.4
		c0-0.5,0.4-0.9,0.9-1v0c0,0-0.5-0.2-0.5-0.7s0.5-0.8,0.5-0.8v0c0,0-0.7-0.3-0.7-1.2S192.5,42.1,193.9,42.1z M193.5,46.7
		c-0.2,0-0.5,0-0.5,0s-0.3,0.2-0.3,0.6c0,0.5,0.4,0.9,1.4,0.9s1.3-0.4,1.3-0.8c0-0.4-0.3-0.6-1-0.6H193.5z M193.9,44.7
		c0.5,0,0.8-0.3,0.8-1s-0.3-1-0.8-1s-0.8,0.3-0.8,1S193.4,44.7,193.9,44.7z"/>
	<path class="st8" d="M198.5,46c0.5,0.1,0.7,0.3,0.7,0.3l-0.1,0.4h-2.4l-0.1-0.4c0,0,0.2-0.2,0.6-0.3v-3.1h-0.6l-0.1-0.4
		c0,0,0.5-0.4,1.2-0.4c0.5,0,0.7,0.2,0.7,0.2v0.7h0c0,0,0.4-0.9,1.2-0.9c0.3,0,0.5,0.1,0.5,0.1v1h-1.3l-0.4,0.5V46z"/>
	<path class="st8" d="M203,46.7c-1.4,0-2.4-0.9-2.4-2.3c0-1.3,1-2.3,2.4-2.3c1.4,0,2.4,0.9,2.4,2.2C205.4,45.7,204.4,46.7,203,46.7z
		 M203,46.1c0.5,0,1-0.5,1-1.7c0-1.2-0.5-1.7-1-1.7s-1,0.5-1,1.7C202,45.6,202.5,46.1,203,46.1z"/>
	<path class="st8" d="M206.2,43.4c0-0.7,0.6-1.3,1.8-1.3c0.9,0,1.6,0.3,1.6,0.3l-0.1,1.3H209c0,0-0.3-0.3-0.4-0.9c0,0-0.2,0-0.5,0
		c-0.5,0-0.7,0.2-0.7,0.5c0,0.8,2.4,0.6,2.4,2.1c0,0.8-0.7,1.4-1.9,1.4c-1,0-1.8-0.4-1.8-0.4l0.1-1.3h0.5c0,0,0.3,0.4,0.4,0.9
		c0,0,0.2,0.1,0.6,0.1c0.5,0,0.8-0.3,0.8-0.6C208.6,44.8,206.2,44.8,206.2,43.4z"/>
	<path class="st8" d="M210.7,43.4c0-0.7,0.6-1.3,1.8-1.3c0.9,0,1.6,0.3,1.6,0.3l-0.1,1.3h-0.5c0,0-0.3-0.3-0.4-0.9c0,0-0.2,0-0.5,0
		c-0.5,0-0.7,0.2-0.7,0.5c0,0.8,2.4,0.6,2.4,2.1c0,0.8-0.7,1.4-1.9,1.4c-1,0-1.8-0.4-1.8-0.4l0.1-1.3h0.5c0,0,0.3,0.4,0.4,0.9
		c0,0,0.2,0.1,0.6,0.1c0.5,0,0.8-0.3,0.8-0.6C213,44.8,210.7,44.8,210.7,43.4z"/>
	<path class="st8" d="M216.4,44.4c0,0.9,0.6,1.5,1.3,1.5c0.7,0,1.1-0.5,1.1-0.5l0.3,0.4c0,0-0.6,0.9-1.8,0.9c-1.4,0-2.3-0.9-2.3-2.3
		c0-1.3,1-2.3,2.2-2.3c1.2,0,2,0.8,2,2.1v0.2H216.4z M216.4,43.8h1.6c0-0.8-0.4-1.1-0.8-1.1C216.9,42.7,216.5,43.1,216.4,43.8z"/>
	<path class="st8" d="M175.9,53.5h0.5c0,0,0.4,0.6,0.5,1.4c0,0,0.3,0.2,0.8,0.2c0.7,0,1.1-0.5,1.1-1c0-1.3-3-1.1-3-3.1
		c0-0.9,0.8-1.8,2.2-1.8c1.2,0,1.9,0.4,1.9,0.4l-0.1,1.8h-0.5c0,0-0.3-0.5-0.5-1.4c0,0-0.3-0.1-0.7-0.1c-0.6,0-0.9,0.4-0.9,0.8
		c0,1.2,3.1,1.2,3.1,3.2c0,1-0.9,1.9-2.4,1.9c-1.3,0-2-0.4-2-0.4L175.9,53.5z"/>
	<path class="st8" d="M181,53.5c0-1.4,1-2.4,2.4-2.4c1.1,0,1.7,0.6,1.7,1.3c0,0.4-0.1,0.6-0.1,0.6h-0.9l-0.2-1.2c0,0-0.1,0-0.4,0
		c-0.6,0-1.2,0.5-1.2,1.6c0,1,0.6,1.6,1.4,1.6c0.7,0,1.2-0.5,1.2-0.5l0.3,0.4c0,0-0.6,0.9-1.8,0.9C182,55.7,181,54.8,181,53.5z"/>
	<path class="st8" d="M187.6,52.3V55c0.3,0.1,0.5,0.3,0.5,0.3l-0.1,0.4h-2.2l-0.1-0.4c0,0,0.2-0.2,0.6-0.3v-5.4h-0.6l-0.1-0.4
		c0,0,0.5-0.4,1.2-0.4c0.5,0,0.8,0.2,0.8,0.2v2.3l-0.1,0.5h0c0,0,0.5-0.7,1.4-0.7c0.8,0,1.4,0.6,1.4,1.4V55c0.4,0.1,0.6,0.3,0.6,0.3
		l-0.1,0.4h-2.2l-0.1-0.4c0,0,0.1-0.1,0.5-0.3v-2.3c0-0.5-0.3-0.8-0.7-0.8C187.9,51.9,187.6,52.3,187.6,52.3z"/>
	<path class="st8" d="M193.2,52.3V55c0.3,0.1,0.5,0.3,0.5,0.3l-0.1,0.4h-2.2l-0.1-0.4c0,0,0.2-0.2,0.6-0.3v-3.1h-0.6l-0.1-0.4
		c0,0,0.5-0.4,1.2-0.4c0.5,0,0.7,0.2,0.7,0.2v0.5h0c0,0,0.5-0.7,1.4-0.7c0.8,0,1.4,0.6,1.4,1.4V55c0.4,0.1,0.6,0.3,0.6,0.3l-0.1,0.4
		h-2.2l-0.1-0.4c0,0,0.1-0.1,0.5-0.3v-2.3c0-0.5-0.3-0.8-0.7-0.8C193.5,51.9,193.2,52.3,193.2,52.3z"/>
	<path class="st8" d="M198.8,55c0.4,0.1,0.6,0.3,0.6,0.3l-0.1,0.4H197l-0.1-0.4c0,0,0.2-0.2,0.6-0.3v-3.1h-0.6l-0.1-0.4
		c0,0,0.5-0.4,1.2-0.4c0.5,0,0.8,0.2,0.8,0.2V55z M198.2,49.2c0.5,0,0.8,0.3,0.8,0.7s-0.3,0.7-0.8,0.7s-0.8-0.3-0.8-0.7
		S197.7,49.2,198.2,49.2z"/>
	<path class="st8" d="M201.7,54.3c0,0.4,0.2,0.6,0.5,0.6c0.4,0,0.7-0.3,0.7-0.3l0.2,0.4c0,0-0.6,0.6-1.5,0.6c-0.8,0-1.2-0.5-1.2-1.4
		v-2.6h-0.6l-0.1-0.4c0,0,0.3-0.2,0.7-0.3l0.3-1h1v1.1h1.1v0.6h-1.1V54.3z"/>
	<path class="st8" d="M205.4,54.3c0,0.4,0.2,0.6,0.5,0.6c0.4,0,0.7-0.3,0.7-0.3l0.2,0.4c0,0-0.6,0.6-1.5,0.6c-0.8,0-1.2-0.5-1.2-1.4
		v-2.6h-0.6l-0.1-0.4c0,0,0.3-0.2,0.7-0.3l0.3-1h1v1.1h1.1v0.6h-1.1V54.3z"/>
	<path class="st8" d="M211.7,55c0.3,0.1,0.5,0.3,0.5,0.3l-0.1,0.4h-2l-0.1-0.4c0,0,0.1-0.1,0.5-0.3v-2.4c0-0.5-0.2-0.7-0.6-0.7
		c-0.5,0-0.8,0.5-0.8,0.5V55c0.3,0.1,0.5,0.3,0.5,0.3l-0.1,0.4h-2.2l-0.1-0.4c0,0,0.2-0.2,0.6-0.3v-3.1h-0.6l-0.1-0.4
		c0,0,0.5-0.4,1.2-0.4c0.5,0,0.7,0.2,0.7,0.2v0.5h0c0,0,0.5-0.7,1.3-0.7c0.9,0,1.2,0.7,1.2,0.7h0c0,0,0.5-0.7,1.4-0.7
		c0.8,0,1.3,0.5,1.3,1.4V55c0.4,0.1,0.6,0.3,0.6,0.3l-0.1,0.4h-2.2l-0.1-0.4c0,0,0.1-0.1,0.5-0.3v-2.4c0-0.5-0.2-0.7-0.6-0.7
		c-0.4,0-0.8,0.5-0.8,0.5V55z"/>
	<path class="st8" d="M216.8,53.4c0,0.9,0.6,1.5,1.3,1.5c0.7,0,1.1-0.5,1.1-0.5l0.3,0.4c0,0-0.6,0.9-1.8,0.9c-1.4,0-2.3-0.9-2.3-2.3
		c0-1.3,1-2.3,2.2-2.3c1.2,0,2,0.8,2,2.1v0.2H216.8z M216.8,52.8h1.6c0-0.8-0.4-1.1-0.8-1.1C217.3,51.7,216.9,52.1,216.8,52.8z"/>
	<path class="st8" d="M222.2,52.3V55c0.3,0.1,0.5,0.3,0.5,0.3l-0.1,0.4h-2.2l-0.1-0.4c0,0,0.2-0.2,0.6-0.3v-3.1h-0.6l-0.1-0.4
		c0,0,0.5-0.4,1.2-0.4c0.5,0,0.7,0.2,0.7,0.2v0.5h0c0,0,0.5-0.7,1.4-0.7c0.8,0,1.4,0.6,1.4,1.4V55c0.4,0.1,0.6,0.3,0.6,0.3l-0.1,0.4
		h-2.2l-0.1-0.4c0,0,0.1-0.1,0.5-0.3v-2.3c0-0.5-0.3-0.8-0.7-0.8C222.5,51.9,222.2,52.3,222.2,52.3z"/>
	<path class="st8" d="M228.2,51.1c0.5,0,0.8,0.1,0.8,0.1s0.2-0.8,1-0.8c0.4,0,0.6,0.2,0.6,0.2v0.8h-1.3v0c0,0,0.9,0.3,0.9,1.3
		c0,0.9-0.7,1.6-2,1.6c-0.5,0-0.9-0.1-0.9-0.1v0.7h1.5c1.3,0,1.8,0.6,1.8,1.4c0,0.9-0.8,1.7-2.4,1.7c-1.7,0-2.3-0.7-2.3-1.4
		c0-0.5,0.4-0.9,0.9-1v0c0,0-0.5-0.2-0.5-0.7s0.5-0.8,0.5-0.8v0c0,0-0.7-0.3-0.7-1.2S226.8,51.1,228.2,51.1z M227.8,55.7
		c-0.2,0-0.5,0-0.5,0s-0.3,0.2-0.3,0.6c0,0.5,0.4,0.9,1.4,0.9s1.3-0.4,1.3-0.8c0-0.4-0.3-0.6-1-0.6H227.8z M228.2,53.7
		c0.5,0,0.8-0.3,0.8-1s-0.3-1-0.8-1s-0.8,0.3-0.8,1S227.7,53.7,228.2,53.7z"/>
	<path class="st8" d="M232.4,53.4c0,0.9,0.6,1.5,1.3,1.5c0.7,0,1.1-0.5,1.1-0.5l0.3,0.4c0,0-0.6,0.9-1.8,0.9c-1.4,0-2.3-0.9-2.3-2.3
		c0-1.3,1-2.3,2.2-2.3c1.2,0,2,0.8,2,2.1v0.2H232.4z M232.5,52.8h1.6c0-0.8-0.4-1.1-0.8-1.1C233,51.7,232.6,52.1,232.5,52.8z"/>
</g>
<g>
	<path class="st8" d="M307.3,42.1c0.5,0,0.8,0.1,0.8,0.1s0.2-0.8,1-0.8c0.4,0,0.6,0.2,0.6,0.2v0.8h-1.3v0c0,0,0.9,0.3,0.9,1.3
		c0,0.9-0.7,1.6-2,1.6c-0.5,0-0.9-0.1-0.9-0.1v0.7h1.5c1.3,0,1.8,0.6,1.8,1.4c0,0.9-0.8,1.7-2.4,1.7c-1.7,0-2.3-0.7-2.3-1.4
		c0-0.5,0.4-0.9,0.9-1v0c0,0-0.5-0.2-0.5-0.7s0.5-0.8,0.5-0.8v0c0,0-0.7-0.3-0.7-1.2S305.9,42.1,307.3,42.1z M306.9,46.7
		c-0.2,0-0.5,0-0.5,0s-0.3,0.2-0.3,0.6c0,0.5,0.4,0.9,1.4,0.9s1.3-0.4,1.3-0.8c0-0.4-0.3-0.6-1-0.6H306.9z M307.3,44.7
		c0.5,0,0.8-0.3,0.8-1s-0.3-1-0.8-1s-0.8,0.3-0.8,1S306.8,44.7,307.3,44.7z"/>
	<path class="st8" d="M311.9,46c0.5,0.1,0.7,0.3,0.7,0.3l-0.1,0.4h-2.4l-0.1-0.4c0,0,0.2-0.2,0.6-0.3v-3.1H310l-0.1-0.4
		c0,0,0.5-0.4,1.2-0.4c0.5,0,0.7,0.2,0.7,0.2v0.7h0c0,0,0.4-0.9,1.2-0.9c0.3,0,0.5,0.1,0.5,0.1v1h-1.3l-0.4,0.5V46z"/>
	<path class="st8" d="M316.4,46.7c-1.4,0-2.4-0.9-2.4-2.3c0-1.3,1-2.3,2.4-2.3c1.4,0,2.4,0.9,2.4,2.2
		C318.8,45.7,317.8,46.7,316.4,46.7z M316.4,46.1c0.5,0,1-0.5,1-1.7c0-1.2-0.5-1.7-1-1.7s-1,0.5-1,1.7
		C315.4,45.6,315.9,46.1,316.4,46.1z"/>
	<path class="st8" d="M319.6,43.4c0-0.7,0.6-1.3,1.8-1.3c0.9,0,1.6,0.3,1.6,0.3l-0.1,1.3h-0.5c0,0-0.3-0.3-0.4-0.9c0,0-0.2,0-0.5,0
		c-0.5,0-0.7,0.2-0.7,0.5c0,0.8,2.4,0.6,2.4,2.1c0,0.8-0.7,1.4-1.9,1.4c-1,0-1.8-0.4-1.8-0.4l0.1-1.3h0.5c0,0,0.3,0.4,0.4,0.9
		c0,0,0.2,0.1,0.6,0.1c0.5,0,0.8-0.3,0.8-0.6C321.9,44.8,319.6,44.8,319.6,43.4z"/>
	<path class="st8" d="M324.1,43.4c0-0.7,0.6-1.3,1.8-1.3c0.9,0,1.6,0.3,1.6,0.3l-0.1,1.3h-0.5c0,0-0.3-0.3-0.4-0.9c0,0-0.2,0-0.5,0
		c-0.5,0-0.7,0.2-0.7,0.5c0,0.8,2.4,0.6,2.4,2.1c0,0.8-0.7,1.4-1.9,1.4c-1,0-1.8-0.4-1.8-0.4l0.1-1.3h0.5c0,0,0.3,0.4,0.4,0.9
		c0,0,0.2,0.1,0.6,0.1c0.5,0,0.8-0.3,0.8-0.6C326.4,44.8,324.1,44.8,324.1,43.4z"/>
	<path class="st8" d="M329.8,44.4c0,0.9,0.6,1.5,1.3,1.5c0.7,0,1.1-0.5,1.1-0.5l0.3,0.4c0,0-0.6,0.9-1.8,0.9c-1.4,0-2.3-0.9-2.3-2.3
		c0-1.3,1-2.3,2.2-2.3c1.2,0,2,0.8,2,2.1v0.2H329.8z M329.8,43.8h1.6c0-0.8-0.4-1.1-0.8-1.1C330.3,42.7,329.9,43.1,329.8,43.8z"/>
	<path class="st8" d="M289.3,53.5h0.5c0,0,0.4,0.6,0.5,1.4c0,0,0.3,0.2,0.8,0.2c0.7,0,1.1-0.5,1.1-1c0-1.3-3-1.1-3-3.1
		c0-0.9,0.8-1.8,2.2-1.8c1.2,0,1.9,0.4,1.9,0.4l-0.1,1.8h-0.5c0,0-0.3-0.5-0.5-1.4c0,0-0.3-0.1-0.7-0.1c-0.6,0-0.9,0.4-0.9,0.8
		c0,1.2,3.1,1.2,3.1,3.2c0,1-0.9,1.9-2.4,1.9c-1.3,0-2-0.4-2-0.4L289.3,53.5z"/>
	<path class="st8" d="M294.4,53.5c0-1.4,1-2.4,2.4-2.4c1.1,0,1.7,0.6,1.7,1.3c0,0.4-0.1,0.6-0.1,0.6h-0.9l-0.2-1.2c0,0-0.1,0-0.4,0
		c-0.6,0-1.2,0.5-1.2,1.6c0,1,0.6,1.6,1.4,1.6c0.7,0,1.2-0.5,1.2-0.5l0.3,0.4c0,0-0.6,0.9-1.8,0.9C295.4,55.7,294.4,54.8,294.4,53.5
		z"/>
	<path class="st8" d="M300.9,52.3V55c0.3,0.1,0.5,0.3,0.5,0.3l-0.1,0.4h-2.2l-0.1-0.4c0,0,0.2-0.2,0.6-0.3v-5.4h-0.6l-0.1-0.4
		c0,0,0.5-0.4,1.2-0.4c0.5,0,0.8,0.2,0.8,0.2v2.3l-0.1,0.5h0c0,0,0.5-0.7,1.4-0.7c0.8,0,1.4,0.6,1.4,1.4V55c0.4,0.1,0.6,0.3,0.6,0.3
		l-0.1,0.4h-2.2l-0.1-0.4c0,0,0.1-0.1,0.5-0.3v-2.3c0-0.5-0.3-0.8-0.7-0.8C301.3,51.9,300.9,52.3,300.9,52.3z"/>
	<path class="st8" d="M306.6,52.3V55c0.3,0.1,0.5,0.3,0.5,0.3l-0.1,0.4h-2.2l-0.1-0.4c0,0,0.2-0.2,0.6-0.3v-3.1h-0.6l-0.1-0.4
		c0,0,0.5-0.4,1.2-0.4c0.5,0,0.7,0.2,0.7,0.2v0.5h0c0,0,0.5-0.7,1.4-0.7c0.8,0,1.4,0.6,1.4,1.4V55c0.4,0.1,0.6,0.3,0.6,0.3l-0.1,0.4
		h-2.2l-0.1-0.4c0,0,0.1-0.1,0.5-0.3v-2.3c0-0.5-0.3-0.8-0.7-0.8C306.9,51.9,306.6,52.3,306.6,52.3z"/>
	<path class="st8" d="M312.2,55c0.4,0.1,0.6,0.3,0.6,0.3l-0.1,0.4h-2.3l-0.1-0.4c0,0,0.2-0.2,0.6-0.3v-3.1h-0.6l-0.1-0.4
		c0,0,0.5-0.4,1.2-0.4c0.5,0,0.8,0.2,0.8,0.2V55z M311.6,49.2c0.5,0,0.8,0.3,0.8,0.7s-0.3,0.7-0.8,0.7s-0.8-0.3-0.8-0.7
		S311.1,49.2,311.6,49.2z"/>
	<path class="st8" d="M315.1,54.3c0,0.4,0.2,0.6,0.5,0.6c0.4,0,0.7-0.3,0.7-0.3l0.2,0.4c0,0-0.6,0.6-1.5,0.6c-0.8,0-1.2-0.5-1.2-1.4
		v-2.6h-0.6l-0.1-0.4c0,0,0.3-0.2,0.7-0.3l0.3-1h1v1.1h1.1v0.6h-1.1V54.3z"/>
	<path class="st8" d="M318.8,54.3c0,0.4,0.2,0.6,0.5,0.6c0.4,0,0.7-0.3,0.7-0.3l0.2,0.4c0,0-0.6,0.6-1.5,0.6c-0.8,0-1.2-0.5-1.2-1.4
		v-2.6h-0.6l-0.1-0.4c0,0,0.3-0.2,0.7-0.3l0.3-1h1v1.1h1.1v0.6h-1.1V54.3z"/>
	<path class="st8" d="M325.1,55c0.3,0.1,0.5,0.3,0.5,0.3l-0.1,0.4h-2l-0.1-0.4c0,0,0.1-0.1,0.5-0.3v-2.4c0-0.5-0.2-0.7-0.6-0.7
		c-0.5,0-0.8,0.5-0.8,0.5V55c0.3,0.1,0.5,0.3,0.5,0.3l-0.1,0.4h-2.2l-0.1-0.4c0,0,0.2-0.2,0.6-0.3v-3.1h-0.6l-0.1-0.4
		c0,0,0.5-0.4,1.2-0.4c0.5,0,0.7,0.2,0.7,0.2v0.5h0c0,0,0.5-0.7,1.3-0.7c0.9,0,1.2,0.7,1.2,0.7h0c0,0,0.5-0.7,1.4-0.7
		c0.8,0,1.3,0.5,1.3,1.4V55c0.4,0.1,0.6,0.3,0.6,0.3l-0.1,0.4h-2.2l-0.1-0.4c0,0,0.1-0.1,0.5-0.3v-2.4c0-0.5-0.2-0.7-0.6-0.7
		c-0.4,0-0.8,0.5-0.8,0.5V55z"/>
	<path class="st8" d="M330.1,53.4c0,0.9,0.6,1.5,1.3,1.5c0.7,0,1.1-0.5,1.1-0.5l0.3,0.4c0,0-0.6,0.9-1.8,0.9c-1.4,0-2.3-0.9-2.3-2.3
		c0-1.3,1-2.3,2.2-2.3c1.2,0,2,0.8,2,2.1v0.2H330.1z M330.2,52.8h1.6c0-0.8-0.4-1.1-0.8-1.1C330.7,51.7,330.3,52.1,330.2,52.8z"/>
	<path class="st8" d="M335.5,52.3V55c0.3,0.1,0.5,0.3,0.5,0.3l-0.1,0.4h-2.2l-0.1-0.4c0,0,0.2-0.2,0.6-0.3v-3.1h-0.6l-0.1-0.4
		c0,0,0.5-0.4,1.2-0.4c0.5,0,0.7,0.2,0.7,0.2v0.5h0c0,0,0.5-0.7,1.4-0.7c0.8,0,1.4,0.6,1.4,1.4V55c0.4,0.1,0.6,0.3,0.6,0.3l-0.1,0.4
		h-2.2l-0.1-0.4c0,0,0.1-0.1,0.5-0.3v-2.3c0-0.5-0.3-0.8-0.7-0.8C335.9,51.9,335.5,52.3,335.5,52.3z"/>
	<path class="st8" d="M341.6,51.1c0.5,0,0.8,0.1,0.8,0.1s0.2-0.8,1-0.8c0.4,0,0.6,0.2,0.6,0.2v0.8h-1.3v0c0,0,0.9,0.3,0.9,1.3
		c0,0.9-0.7,1.6-2,1.6c-0.5,0-0.9-0.1-0.9-0.1v0.7h1.5c1.3,0,1.8,0.6,1.8,1.4c0,0.9-0.8,1.7-2.4,1.7c-1.7,0-2.3-0.7-2.3-1.4
		c0-0.5,0.4-0.9,0.9-1v0c0,0-0.5-0.2-0.5-0.7s0.5-0.8,0.5-0.8v0c0,0-0.7-0.3-0.7-1.2S340.2,51.1,341.6,51.1z M341.2,55.7
		c-0.2,0-0.5,0-0.5,0s-0.3,0.2-0.3,0.6c0,0.5,0.4,0.9,1.4,0.9s1.3-0.4,1.3-0.8c0-0.4-0.3-0.6-1-0.6H341.2z M341.6,53.7
		c0.5,0,0.8-0.3,0.8-1s-0.3-1-0.8-1s-0.8,0.3-0.8,1S341.1,53.7,341.6,53.7z"/>
	<path class="st8" d="M345.8,53.4c0,0.9,0.6,1.5,1.3,1.5c0.7,0,1.1-0.5,1.1-0.5l0.3,0.4c0,0-0.6,0.9-1.8,0.9c-1.4,0-2.3-0.9-2.3-2.3
		c0-1.3,1-2.3,2.2-2.3c1.2,0,2,0.8,2,2.1v0.2H345.8z M345.9,52.8h1.6c0-0.8-0.4-1.1-0.8-1.1C346.3,51.7,345.9,52.1,345.9,52.8z"/>
</g>
<g>
	<line class="st9" x1="318.9" y1="63.8" x2="318.9" y2="170.1"/>
	<g>
		<path class="st10" d="M317,63.8c0-1,0.8-1.9,1.9-1.9s1.9,0.8,1.9,1.9c0,1-0.8,1.9-1.9,1.9S317,64.8,317,63.8z"/>
	</g>
	<g>
		<circle class="st10" cx="318.9" cy="170.1" r="1.9"/>
	</g>
</g>
<g>
	<line class="st9" x1="205.5" y1="63.8" x2="205.5" y2="170.1"/>
	<g>
		<path class="st10" d="M203.6,63.8c0-1,0.8-1.9,1.9-1.9s1.9,0.8,1.9,1.9c0,1-0.8,1.9-1.9,1.9S203.6,64.8,203.6,63.8z"/>
	</g>
	<g>
		<circle class="st10" cx="205.5" cy="170.1" r="1.9"/>
	</g>
</g>
</svg>
