<?xml version="1.0" encoding="utf-8"?>
<!-- Generator: Adobe Illustrator 22.1.0, SVG Export Plug-In . SVG Version: 6.00 Build 0)  -->
<svg version="1.1" id="Ebene_2" xmlns="http://www.w3.org/2000/svg" xmlns:xlink="http://www.w3.org/1999/xlink" x="0px" y="0px"
	 viewBox="0 0 524.4 326" style="enable-background:new 0 0 524.4 326;" xml:space="preserve">
<style type="text/css">
	.st0{fill:#FFFFFF;}
	.st1{opacity:0.4;fill:#619889;}
	.st2{fill:#619889;}
	.st3{opacity:0.4;fill:#A6944C;}
	.st4{fill:#A6944C;}
	.st5{fill:none;stroke:#12120D;stroke-width:6;stroke-miterlimit:10;stroke-dasharray:0.4994,1.9975;}
	.st6{fill:#12120D;}
	.st7{fill:#EB4A11;}
</style>
<rect x="0" class="st0" width="524.4" height="326"/>
<circle class="st1" cx="155.9" cy="276.4" r="85"/>
<circle class="st1" cx="113.4" cy="170.1" r="85"/>
<g>
	<g>
		<path class="st2" d="M126.3,282.7c0,0,0.5-0.4,1.1-0.5v-7.3c-0.6-0.1-1.1-0.5-1.1-0.5l0.1-0.8h4.6c2.9,0,4.2,1.3,4.2,3.2
			c0,1.8-1.3,3.2-4.2,3.2h-0.6v2.2c0.7,0.1,1.3,0.5,1.3,0.5l-0.1,0.8h-5.2L126.3,282.7z M130.4,275v3.6c0.9,0,1.5-0.6,1.5-1.8
			S131.3,275,130.4,275z"/>
		<path class="st2" d="M139.6,283.6c-2.5,0-4-1.5-4-3.6c0-2.1,1.6-3.7,4-3.7c2.5,0,4,1.5,4,3.6C143.6,282,142,283.6,139.6,283.6z
			 M139.6,277.4c-0.6,0-1.1,0.6-1.1,2.5s0.6,2.5,1.1,2.5s1.1-0.6,1.1-2.5S140.2,277.4,139.6,277.4z"/>
		<path class="st2" d="M144.2,283.5l-0.1-0.6c0,0,0.4-0.3,0.9-0.4v-8.2h-0.8l-0.1-0.8c0,0,0.8-0.6,2.2-0.6c1,0,1.5,0.3,1.5,0.3v9.3
			c0.5,0.1,0.9,0.4,0.9,0.4l-0.1,0.6H144.2z"/>
		<path class="st2" d="M154.9,277.5c-0.4-0.1-0.8-0.4-0.8-0.4l0.1-0.6h2.8l0.1,0.6c0,0-0.4,0.3-0.8,0.4l-2.6,7.5
			c-0.4,1.2-1.1,1.9-2.3,1.9c-0.8,0-1.1-0.2-1.1-0.2v-1.9h2.1l0.5-1.3h-1.2l-2.3-6c-0.5-0.1-0.8-0.4-0.8-0.4l0.1-0.6h4.4l0.1,0.6
			c0,0-0.4,0.3-0.8,0.4l1,2.8v1h0.1L154.9,277.5z"/>
		<path class="st2" d="M162.5,276.7c0,0,0.2-1.5,1.8-1.5c0.7,0,1,0.2,1,0.2v1.5h-2v0.1c0,0,1.1,0.5,1.1,1.8c0,1.5-1.1,2.6-3.4,2.6
			c-0.7,0-1.1-0.1-1.1-0.1v0.8h2.4c1.8,0,2.9,1.1,2.9,2.2c0,1.5-1.3,2.7-4,2.7c-2.8,0-3.9-1.1-3.9-2.1c0-1.3,1.3-1.7,1.3-1.7V283
			c0,0-0.9-0.3-0.9-1.1c0-0.8,0.9-1.1,0.9-1.1v-0.1c0,0-1.1-0.6-1.1-1.8c0-1.5,1.1-2.6,3.4-2.6C161.9,276.3,162.5,276.7,162.5,276.7
			z M161.8,283.7h-2c0,0-0.3,0.3-0.3,0.8c0,0.6,0.6,1.2,1.8,1.2c1.3,0,1.8-0.5,1.8-1.1C163.1,284.2,162.7,283.7,161.8,283.7z
			 M161.7,278.8c0-1.1-0.4-1.4-0.8-1.4s-0.8,0.4-0.8,1.4c0,1,0.3,1.4,0.8,1.4S161.7,279.9,161.7,278.8z"/>
		<path class="st2" d="M165.4,283.5l-0.1-0.6c0,0,0.4-0.3,0.9-0.4v-4.6h-0.8l-0.1-0.8c0,0,0.8-0.6,2.2-0.6c0.9,0,1.3,0.3,1.3,0.3
			v1.5h0.1c0,0,0.4-1.8,2-1.8c0.3,0,0.6,0.1,0.6,0.1v2.3h-2l-0.6,0.7v3c0.6,0.1,1.1,0.4,1.1,0.4l-0.1,0.6H165.4z"/>
		<path class="st2" d="M179.1,282.1h0.8l0.1,0.8c0,0-0.8,0.6-2.2,0.6c-0.9,0-1.3-0.3-1.3-0.3v-0.8h-0.1c0,0-0.7,1.1-2.1,1.1
			c-1.3,0-2.2-0.8-2.2-2c0-1.2,1-2.2,3-2.2c0.7,0,1.3,0.1,1.3,0.1v-1.2c0-0.6-0.4-1-1-1c-0.2,0-0.5,0.1-0.5,0.1l-0.1,1.5h-2
			c0,0-0.2-0.2-0.2-0.7c0-1.1,1-2,3.2-2c2.2,0,3.4,1.1,3.4,2.5V282.1z M176.4,281.4v-1H176c-0.8,0-1.1,0.4-1.1,0.8
			c0,0.4,0.3,0.7,0.7,0.7C176,282,176.4,281.4,176.4,281.4z"/>
		<path class="st2" d="M180.6,283.5l-0.1-0.6c0,0,0.4-0.3,0.9-0.4v-4.7h-0.8l-0.2-0.9c0,0,0.5-0.4,1-0.4v-0.8c0-1.7,1.1-2.7,2.7-2.7
			c0.7,0,1.1,0.2,1.1,0.2v2h-2.5v0.4l1.1,1h1.6v1.3h-1.3v4.7c0.6,0.1,1.1,0.4,1.1,0.4l-0.1,0.6H180.6z"/>
	</g>
</g>
<circle class="st1" cx="333.1" cy="63.8" r="85"/>
<circle class="st3" cx="184.3" cy="63.8" r="85"/>
<g>
	<path class="st4" d="M137.3,64.4l0.2,1.1v4.1c0.6,0.1,1.1,0.5,1.1,0.5l-0.1,0.8h-3.4l-0.1-0.8c0,0,0.5-0.4,1.1-0.5v-7.3
		c-0.6-0.1-1.1-0.5-1.1-0.5l0.1-0.8h4.3l1.8,4v1h0.1l2.2-5h4l0.1,0.8c0,0-0.5,0.4-1.1,0.5v7.3c0.6,0.1,1.1,0.5,1.1,0.5l-0.1,0.8
		h-4.9l-0.1-0.8c0,0,0.5-0.4,1.1-0.5v-4.1l0.2-1.1h-0.1l-2.4,5.3h-1.4l-2.4-5.3H137.3z"/>
	<path class="st4" d="M148.2,67.4c0-2.1,1.6-3.7,3.8-3.7s3.5,1.3,3.5,3.1c0,0.6-0.1,0.8-0.1,0.8h-4.3c0.1,1.3,0.8,2,1.9,2
		c0.9,0,1.6-0.8,1.6-0.8l0.7,0.7c0,0-1,1.5-3.1,1.5C149.8,71,148.2,69.5,148.2,67.4z M151.1,66.4h1.8c-0.1-1.1-0.5-1.5-0.9-1.5
		S151.2,65.3,151.1,66.4z"/>
	<path class="st4" d="M164,69.5h0.8l0.1,0.8c0,0-0.8,0.6-2.2,0.6c-0.9,0-1.3-0.3-1.3-0.3v-0.8h-0.1c0,0-0.7,1.1-2.1,1.1
		c-1.5,0-2.7-1.3-2.7-3.6c0-2.3,1.4-3.7,3.2-3.7c1.1,0,1.7,0.8,1.7,0.8h0.1l-0.1-0.8v-2.1h-0.8l-0.1-0.8c0,0,0.8-0.6,2.2-0.6
		c1,0,1.5,0.3,1.5,0.3V69.5z M161.3,66.9c0-1.2-0.5-1.7-1-1.7s-1,0.5-1,2.1s0.5,2.1,1.1,2.1s0.9-0.6,0.9-0.6V66.9z"/>
	<path class="st4" d="M165.4,70.9l-0.1-0.6c0,0,0.4-0.3,0.9-0.4v-4.5h-0.8l-0.1-0.8c0,0,0.8-0.6,2.2-0.6c1,0,1.5,0.3,1.5,0.3v5.6
		c0.5,0.1,0.9,0.4,0.9,0.4l-0.1,0.6H165.4z M167.5,63.4c-0.8,0-1.5-0.6-1.5-1.3c0-0.7,0.6-1.3,1.5-1.3s1.5,0.6,1.5,1.3
		C169,62.8,168.3,63.4,167.5,63.4z"/>
	<path class="st4" d="M177.2,69.5h0.8l0.1,0.8c0,0-0.8,0.6-2.2,0.6c-0.9,0-1.3-0.3-1.3-0.3v-0.8h-0.1c0,0-0.7,1.1-2.1,1.1
		c-1.3,0-2.2-0.8-2.2-2c0-1.2,1-2.2,3-2.2c0.7,0,1.3,0.1,1.3,0.1v-1.2c0-0.6-0.3-1-1-1c-0.2,0-0.5,0.1-0.5,0.1l-0.1,1.5h-2
		c0,0-0.2-0.2-0.2-0.7c0-1.1,1-2,3.2-2c2.2,0,3.4,1.1,3.4,2.5V69.5z M174.5,68.8v-1h-0.4c-0.8,0-1.1,0.4-1.1,0.8
		c0,0.4,0.3,0.7,0.7,0.7C174.1,69.4,174.5,68.8,174.5,68.8z"/>
	<path class="st4" d="M186.2,65.9v3.9c0.4,0.2,0.6,0.4,0.6,0.4l-0.1,0.6h-3.6l-0.1-0.6c0,0,0.2-0.2,0.6-0.4v-3.6
		c0-0.6-0.3-0.8-0.6-0.8c-0.5,0-0.8,0.6-0.8,0.6v3.9c0.3,0.2,0.6,0.4,0.6,0.4l-0.1,0.6h-3.9l-0.1-0.6c0,0,0.4-0.3,0.9-0.4v-4.6h-0.8
		l-0.1-0.8c0,0,0.8-0.6,2.2-0.6c0.9,0,1.3,0.3,1.3,0.3v0.8h0.1c0,0,0.7-1.1,2-1.1c1.5,0,1.9,1.1,1.9,1.1h0.1c0,0,0.7-1.1,2.1-1.1
		c1.3,0,2.1,0.8,2.1,2.2v3.9c0.5,0.1,0.9,0.4,0.9,0.4l-0.1,0.6h-3.9l-0.1-0.6c0,0,0.2-0.2,0.6-0.4v-3.6c0-0.6-0.3-0.8-0.6-0.8
		C186.5,65.3,186.2,65.9,186.2,65.9z"/>
	<path class="st4" d="M198.7,69.5h0.8l0.1,0.8c0,0-0.8,0.6-2.2,0.6c-0.9,0-1.3-0.3-1.3-0.3v-0.8H196c0,0-0.7,1.1-2.1,1.1
		c-1.3,0-2.2-0.8-2.2-2c0-1.2,1-2.2,3-2.2c0.7,0,1.3,0.1,1.3,0.1v-1.2c0-0.6-0.4-1-1-1c-0.2,0-0.5,0.1-0.5,0.1l-0.1,1.5h-2
		c0,0-0.2-0.2-0.2-0.7c0-1.1,1-2,3.2-2c2.2,0,3.4,1.1,3.4,2.5V69.5z M196,68.8v-1h-0.4c-0.8,0-1.1,0.4-1.1,0.8
		c0,0.4,0.3,0.7,0.7,0.7C195.6,69.4,196,68.8,196,68.8z"/>
	<path class="st4" d="M200.7,65.1h-0.8l-0.2-0.9c0,0,0.5-0.4,1-0.4l0.9-1.7h1.8v1.8h1.6v1.3h-1.6v3.2c0,0.7,0.3,1.1,0.8,1.1
		s1-0.4,1-0.4l0.5,0.8c0,0-0.9,1.1-2.7,1.1c-1.5,0-2.3-0.8-2.3-2.1V65.1z"/>
	<path class="st4" d="M206.1,70.9l-0.1-0.6c0,0,0.4-0.3,0.9-0.4v-4.5h-0.8l-0.1-0.8c0,0,0.8-0.6,2.2-0.6c1,0,1.5,0.3,1.5,0.3v5.6
		c0.5,0.1,0.9,0.4,0.9,0.4l-0.1,0.6H206.1z M208.2,63.4c-0.8,0-1.5-0.6-1.5-1.3c0-0.7,0.6-1.3,1.5-1.3s1.5,0.6,1.5,1.3
		C209.7,62.8,209.1,63.4,208.2,63.4z"/>
	<path class="st4" d="M216.5,64.9c-0.4-0.1-0.8-0.4-0.8-0.4l0.1-0.6h2.8l0.1,0.6c0,0-0.4,0.3-0.8,0.4l-1.3,1.8
		c0.4,0.9,1.4,2.5,2,3.1c0.5,0.1,0.8,0.4,0.8,0.4l-0.1,0.6H216c-0.5-0.7-1.2-2.2-1.4-3h-0.3v2c0.4,0.2,0.7,0.4,0.7,0.4l-0.1,0.6
		h-4.1l-0.1-0.6c0,0,0.4-0.3,0.9-0.4v-8.2h-0.8l-0.1-0.8c0,0,0.8-0.6,2.2-0.6c1,0,1.5,0.3,1.5,0.3v6.2l1-0.1L216.5,64.9z"/>
	<path class="st4" d="M219.6,67.4c0-2.1,1.6-3.7,3.8-3.7s3.5,1.3,3.5,3.1c0,0.6-0.1,0.8-0.1,0.8h-4.3c0.1,1.3,0.8,2,1.9,2
		c0.9,0,1.6-0.8,1.6-0.8l0.7,0.7c0,0-1,1.5-3.1,1.5C221.2,71,219.6,69.5,219.6,67.4z M222.5,66.4h1.8c-0.1-1.1-0.5-1.5-0.9-1.5
		S222.6,65.3,222.5,66.4z"/>
	<path class="st4" d="M227.7,70.9l-0.1-0.6c0,0,0.4-0.3,0.9-0.4v-4.6h-0.8l-0.1-0.8c0,0,0.8-0.6,2.2-0.6c0.9,0,1.3,0.3,1.3,0.3v1.5
		h0.1c0,0,0.4-1.8,2-1.8c0.3,0,0.6,0.1,0.6,0.1v2.3h-2l-0.6,0.7v3c0.6,0.1,1.1,0.4,1.1,0.4l-0.1,0.6H227.7z"/>
</g>
<circle class="st3" cx="106.3" cy="191.3" r="85"/>
<g>
	<path class="st4" d="M86.4,197.7c0,0-1.1,0.8-3.5,0.8c-3.5,0-5.5-2-5.5-4.9c0-3.1,2.1-5.2,5.5-5.2c2,0,3.3,0.7,3.3,0.7l-0.2,2.7
		h-1.1c0,0-0.6-0.8-0.7-2c0,0-0.3-0.2-1-0.2c-1.3,0-2.5,1.1-2.5,3.8c0,2.6,1.1,3.7,2.3,3.7c0.3,0,0.6-0.1,0.6-0.1v-2.2
		c-0.6-0.1-1.1-0.5-1.1-0.5l0.1-0.8h4.5l0.1,0.8c0,0-0.4,0.3-0.9,0.5V197.7z"/>
	<path class="st4" d="M87.8,198.4l-0.1-0.6c0,0,0.4-0.3,0.9-0.4v-4.6h-0.8l-0.1-0.8c0,0,0.8-0.6,2.2-0.6c0.9,0,1.3,0.3,1.3,0.3v1.5
		h0.1c0,0,0.4-1.8,2-1.8c0.3,0,0.6,0.1,0.6,0.1v2.3h-2l-0.6,0.7v3c0.6,0.1,1.1,0.4,1.1,0.4l-0.1,0.6H87.8z"/>
	<path class="st4" d="M101.5,197.1h0.8l0.1,0.8c0,0-0.8,0.6-2.2,0.6c-0.9,0-1.3-0.3-1.3-0.3v-0.8h-0.1c0,0-0.7,1.1-2.1,1.1
		c-1.3,0-2.2-0.8-2.2-2c0-1.2,1-2.2,3-2.2c0.7,0,1.3,0.1,1.3,0.1v-1.2c0-0.6-0.3-1-1-1c-0.2,0-0.5,0.1-0.5,0.1l-0.1,1.5h-2
		c0,0-0.2-0.2-0.2-0.7c0-1.1,1-2,3.2-2c2.2,0,3.4,1.1,3.4,2.5V197.1z M98.8,196.4v-1h-0.4c-0.8,0-1.1,0.3-1.1,0.8
		c0,0.4,0.3,0.7,0.7,0.7C98.5,197,98.8,196.4,98.8,196.4z"/>
	<path class="st4" d="M107.9,198.4l-0.1-0.6c0,0,0.4-0.3,0.9-0.4v-4.7h-2.2v4.7c0.5,0.1,0.9,0.4,0.9,0.4l-0.1,0.6H103l-0.1-0.6
		c0,0,0.4-0.3,0.9-0.4v-4.7h-0.8l-0.2-0.9c0,0,0.5-0.3,1-0.4v-0.2c0-2,1.4-3.4,3.9-3.4c3.1,0,3.8,2,3.8,2s-0.4,0.8-1.8,0.8
		c-0.7,0-1.2-0.2-1.2-0.2s-0.3-1.1-1.7-1.1c-1,0-1.5,0.6-1.8,1.3l1.1,1h5.2v6c0.5,0.1,0.9,0.4,0.9,0.4l-0.1,0.6H107.9z"/>
	<path class="st4" d="M118.3,192.5c-0.4-0.1-0.8-0.4-0.8-0.4l0.1-0.6h2.8l0.1,0.6c0,0-0.4,0.3-0.8,0.4l-1.3,1.8
		c0.4,0.9,1.4,2.5,2,3.1c0.5,0.1,0.8,0.4,0.8,0.4l-0.1,0.6h-3.3c-0.5-0.7-1.2-2.2-1.4-3h-0.3v2c0.4,0.2,0.7,0.4,0.7,0.4l-0.1,0.6
		h-4.1l-0.1-0.6c0,0,0.4-0.3,0.9-0.4v-8.2h-0.8l-0.1-0.8c0,0,0.8-0.6,2.2-0.6c1,0,1.5,0.3,1.5,0.3v6.2l1-0.1L118.3,192.5z"/>
	<path class="st4" d="M121.4,195c0-2.1,1.6-3.7,3.8-3.7c2.2,0,3.5,1.3,3.5,3.1c0,0.6-0.1,0.8-0.1,0.8h-4.3c0.1,1.3,0.8,2,1.9,2
		c0.9,0,1.6-0.8,1.6-0.8l0.7,0.7c0,0-1,1.5-3.1,1.5C123,198.6,121.4,197,121.4,195z M124.3,193.9h1.8c-0.1-1.1-0.5-1.5-0.9-1.5
		C124.8,192.4,124.4,192.8,124.3,193.9z"/>
	<path class="st4" d="M129.5,198.4l-0.1-0.6c0,0,0.4-0.3,0.9-0.4v-4.6h-0.8l-0.1-0.8c0,0,0.8-0.6,2.2-0.6c0.9,0,1.3,0.3,1.3,0.3v1.5
		h0.1c0,0,0.4-1.8,2-1.8c0.3,0,0.6,0.1,0.6,0.1v2.3h-2l-0.6,0.7v3c0.6,0.1,1.1,0.4,1.1,0.4l-0.1,0.6H129.5z"/>
</g>
<g>
	<circle class="st5" cx="262.2" cy="163" r="85"/>
</g>
<g>
	<g>
		<path class="st6" d="M233,161.7c0.6,0.1,1.2,0.5,1.2,0.5l-0.3,0.8H229l0-0.8c0,0,0.5-0.4,1.1-0.5l1.1-7.3
			c-0.5-0.1-0.9-0.5-0.9-0.5l0.3-0.8h7.4l-0.3,3l-1.1,0.1c0,0-0.4-0.6-0.6-1.7h-1.8l-0.5,2.9l2.3-0.4l-0.4,2.2l-2.1-0.4L233,161.7z"
			/>
		<path class="st6" d="M237.4,163l0.9-5.7h-0.8l0-0.8c0,0,0.9-0.6,2.2-0.6c0.9,0,1.2,0.3,1.2,0.3l-0.2,1.5h0.1c0,0,0.7-1.8,2.2-1.8
			c0.3,0,0.5,0.1,0.5,0.1l-0.4,2.3h-1.9l-0.6,0.7L240,163H237.4z"/>
		<path class="st6" d="M246.7,163.1c-2.1,0-3.3-1.4-3.3-3.2c0-2.3,1.9-4.1,4.4-4.1c2.1,0,3.3,1.4,3.3,3.2
			C251.1,161.4,249.2,163.1,246.7,163.1z M247.7,157c-0.7,0-1.6,1-1.6,3.5c0,1.2,0.4,1.6,0.8,1.6c0.7,0,1.6-1,1.6-3.5
			C248.4,157.4,248.1,157,247.7,157z"/>
		<path class="st6" d="M258.8,161.6c0.4-0.1,0.7-0.4,0.7-0.4l0.4,0.8c0,0-0.8,1.1-2.4,1.1c-1.1,0-1.5-0.5-1.5-0.5l0.7-4.3
			c0-0.1,0-0.2,0-0.2c0-0.4-0.2-0.6-0.5-0.6c-0.5,0-0.9,0.6-0.9,0.6l-0.8,5H252l0.9-5.7h-0.8v-0.8c0,0,0.9-0.6,2.2-0.6
			c0.9,0,1.2,0.3,1.2,0.3l-0.1,0.8h0.1c0,0,0.9-1.1,2.2-1.1c1.1,0,1.7,0.7,1.7,1.8c0,0.1,0,0.3,0,0.4L258.8,161.6z"/>
		<path class="st6" d="M263.4,161.5c0.7-0.1,1.3-0.6,1.3-0.6l0.4,0.8c0,0-1.1,1.3-2.9,1.3c-1.1,0-1.5-0.5-1.5-0.5l0.8-5.3h-0.8
			l-0.1-0.9c0,0,0.5-0.4,1.1-0.4l1.1-1.7h1.7l-0.3,1.8h1.5l-0.2,1.3H264L263.4,161.5z"/>
		<path class="st6" d="M266,159.9c0-2.3,1.9-4.1,4.5-4.1c1.6,0,2.4,0.8,2.4,1.7c0,1.4-1,2.5-4.1,2.6c0,0.8,0.6,1.5,1.5,1.5
			c0.9,0,1.7-0.8,1.7-0.8l0.5,0.7c0,0-1.2,1.5-3.2,1.5C267.2,163.1,266,161.7,266,159.9z M268.8,159.2c1.1-0.2,1.7-0.9,1.7-1.8
			c0-0.3-0.2-0.5-0.4-0.5C269.8,157,269.2,157.5,268.8,159.2z"/>
		<path class="st6" d="M280.4,161.6c0.4-0.1,0.7-0.4,0.7-0.4l0.4,0.8c0,0-0.8,1.1-2.4,1.1c-1.1,0-1.5-0.5-1.5-0.5l0.7-4.3
			c0-0.1,0-0.2,0-0.2c0-0.4-0.2-0.6-0.5-0.6c-0.5,0-0.9,0.6-0.9,0.6l-0.8,5h-2.6l0.9-5.7h-0.8v-0.8c0,0,0.9-0.6,2.2-0.6
			c0.9,0,1.2,0.3,1.2,0.3L277,157h0.1c0,0,0.9-1.1,2.2-1.1c1,0,1.7,0.7,1.7,1.8c0,0.1,0,0.3,0,0.4L280.4,161.6z"/>
		<path class="st6" d="M288.9,161.6c0.4-0.1,0.7-0.4,0.7-0.4l0.4,0.8c0,0-0.8,1.1-2.4,1.1c-1.1,0-1.4-0.5-1.4-0.5l0.1-0.6h-0.1
			c0,0-0.8,1.1-2.2,1.1c-1.2,0-2.1-1-2.1-2.8c0-2.7,1.8-4.5,3.7-4.5c1.1,0,1.5,0.8,1.5,0.8h0.1l0-0.8l0.3-2.1h-0.8V153
			c0,0,0.9-0.6,2.2-0.6c0.9,0,1.3,0.3,1.3,0.3L288.9,161.6z M286.7,159c0-0.2,0-0.4,0-0.6c0-0.8-0.3-1.1-0.7-1.1
			c-0.7,0-1.4,0.8-1.4,2.8c0,1,0.3,1.4,0.7,1.4c0.5,0,1-0.6,1-0.6L286.7,159z"/>
		<path class="st6" d="M290.8,158.4h4l-0.2,1.4h-4L290.8,158.4z"/>
	</g>
	<g>
		<path class="st6" d="M219.6,177.2l0-0.8c0,0,0.5-0.3,1.1-0.5l1.1-7.3c-0.5-0.1-0.9-0.5-0.9-0.5l0.3-0.8h7.5l-0.4,3l-1.1,0.1
			c0,0-0.4-0.6-0.6-1.7h-1.9l-0.4,2.6l2.3-0.4l-0.3,2.2l-2.2-0.4l-0.5,2.9h1.9c0.6-1.1,1.2-1.7,1.2-1.7l1,0.1l-0.7,3H219.6z"/>
		<path class="st6" d="M235.9,175.8c0.4-0.1,0.7-0.4,0.7-0.4l0.4,0.8c0,0-0.8,1.1-2.4,1.1c-1.1,0-1.5-0.5-1.5-0.5l0.7-4.3
			c0-0.1,0-0.2,0-0.2c0-0.4-0.2-0.6-0.5-0.6c-0.5,0-0.9,0.6-0.9,0.6l-0.8,5h-2.6l0.9-5.7h-0.8v-0.8c0,0,0.9-0.6,2.2-0.6
			c0.9,0,1.2,0.3,1.2,0.3l-0.1,0.8h0.1c0,0,0.9-1.1,2.2-1.1c1.1,0,1.7,0.7,1.7,1.8c0,0.1,0,0.3,0,0.4L235.9,175.8z"/>
		<path class="st6" d="M240.5,175.7c0.7-0.1,1.3-0.6,1.3-0.6l0.4,0.8c0,0-1.1,1.3-2.9,1.3c-1.1,0-1.5-0.5-1.5-0.5l0.8-5.3h-0.8
			l-0.1-0.9c0,0,0.5-0.4,1.1-0.4l1.1-1.7h1.7l-0.3,1.8h1.5l-0.2,1.3h-1.5L240.5,175.7z"/>
		<path class="st6" d="M248.2,172.4l-0.4-2.2h2.9l0.7,3.4l-0.2,1h0.1l1-1.9l0.2-2.5h1.8c0,0,0.1,0.3,0.1,0.6c0,0.9-0.8,2.1-0.8,2.1
			l-2.4,4.3h-1.9l-0.4-2.3l0.2-1h-0.1l-1.8,3.3h-1.9l-1.2-5.7h-0.8v-0.8c0,0,0.9-0.6,2.2-0.6c0.9,0,1.1,0.3,1.1,0.3l0.6,3.2l-0.2,1
			h0.1L248.2,172.4z"/>
		<path class="st6" d="M257.8,175.8c0.3-0.1,0.7-0.4,0.7-0.4l0.4,0.8c0,0-0.8,1.1-2.4,1.1c-1.1,0-1.5-0.5-1.5-0.5l0.8-5.1h-0.8
			l0-0.8c0,0,0.9-0.6,2.2-0.6c0.9,0,1.4,0.3,1.4,0.3L257.8,175.8z M257.6,169.7c-0.8,0-1.5-0.6-1.5-1.3c0-0.7,0.6-1.3,1.5-1.3
			c0.8,0,1.5,0.6,1.5,1.3C259.1,169.1,258.5,169.7,257.6,169.7z"/>
		<path class="st6" d="M259.4,174.1c0-2.3,1.9-4.1,4.5-4.1c1.7,0,2.5,0.9,2.5,1.8c0,0.6-0.4,1.2-0.4,1.2h-1.7v-1.8
			c0,0-0.1-0.1-0.3-0.1c-1,0-1.9,1-1.9,2.8c0,1.2,0.6,1.9,1.5,1.9c0.9,0,1.7-0.8,1.7-0.8l0.6,0.7c0,0-1.2,1.5-3.2,1.5
			C260.6,177.3,259.4,175.9,259.4,174.1z"/>
		<path class="st6" d="M272.6,170.2h1.8c0,0,0.1,0.2,0.1,0.5c0,1-1.2,1.7-1.2,1.7l-0.9,0.7l1.3,2.7c0.4-0.1,0.7-0.4,0.7-0.4l0.4,0.8
			c0,0-0.8,1.1-2.2,1.1c-1.1,0-1.5-0.5-1.5-0.5l-0.8-2.6h-0.2l-0.5,3H267l1.5-9.2h-0.8l0-0.8c0,0,0.9-0.6,2.2-0.6
			c0.9,0,1.3,0.3,1.3,0.3l-1,6.2l0.9-0.1l0.9-0.8L272.6,170.2z"/>
		<path class="st6" d="M276.7,167.9h-0.8l0-0.8c0,0,0.9-0.6,2.2-0.6c0.9,0,1.3,0.3,1.3,0.3l-1.4,9c0.4-0.1,0.7-0.4,0.7-0.4l0.4,0.8
			c0,0-0.8,1.1-2.4,1.1c-1.1,0-1.5-0.5-1.5-0.5L276.7,167.9z"/>
		<path class="st6" d="M284.1,176.2h-0.1c0,0-0.8,1.1-2.2,1.1c-1.1,0-1.8-0.7-1.8-1.8c0-0.1,0-0.3,0-0.4l0.6-3.6h-0.8v-0.8
			c0,0,0.9-0.6,2.2-0.6c0.9,0,1.3,0.4,1.3,0.4l-0.7,4.4c0,0.1,0,0.2,0,0.2c0,0.4,0.2,0.6,0.6,0.6c0.5,0,0.9-0.6,0.9-0.6l0.8-5h2.6
			l-0.9,5.6c0.3-0.1,0.7-0.4,0.7-0.4l0.4,0.8c0,0-0.8,1.1-2.4,1.1c-1.1,0-1.4-0.5-1.4-0.5L284.1,176.2z"/>
		<path class="st6" d="M295.2,175.8c0.4-0.1,0.7-0.4,0.7-0.4l0.4,0.8c0,0-0.8,1.1-2.4,1.1c-1.1,0-1.5-0.5-1.5-0.5l0.7-4.3
			c0-0.1,0-0.2,0-0.2c0-0.4-0.2-0.6-0.5-0.6c-0.5,0-0.9,0.6-0.9,0.6l-0.8,5h-2.6l0.9-5.7h-0.8v-0.8c0,0,0.9-0.6,2.2-0.6
			c0.9,0,1.2,0.3,1.2,0.3l-0.1,0.8h0.1c0,0,0.9-1.1,2.2-1.1c1.1,0,1.7,0.7,1.7,1.8c0,0.1,0,0.3,0,0.4L295.2,175.8z"/>
		<path class="st6" d="M302.4,170.4c0,0,0.4-1.5,1.9-1.5c0.7,0,0.9,0.2,0.9,0.2l-0.2,1.5h-1.9l0,0.1c0,0,0.8,0.5,0.8,1.6
			c0,1.5-1.3,2.8-3.6,2.8c-0.8,0-1.2-0.1-1.2-0.1l-0.1,0.8h2.3c1.6,0,2.4,1,2.4,2c0,1.5-1.4,2.9-4.2,2.9c-2.5,0-3.4-1-3.4-1.9
			c0-1.4,1.6-1.8,1.6-1.8l0-0.1c0,0-0.7-0.3-0.7-1c0-1,1.1-1.3,1.1-1.3l0-0.1c0,0-0.8-0.5-0.8-1.6c0-1.4,1.1-2.8,3.5-2.8
			C301.8,170,302.4,170.4,302.4,170.4z M300.7,177.4h-1.9c0,0-0.4,0.4-0.4,0.9c0,0.6,0.5,1.1,1.6,1.1c1.3,0,1.8-0.6,1.8-1.2
			C301.8,177.8,301.4,177.4,300.7,177.4z M301.4,172.1c0-0.7-0.2-0.9-0.6-0.9c-0.5,0-1,0.5-1,1.8c0,0.7,0.2,1,0.6,1
			C300.9,173.9,301.4,173.4,301.4,172.1z"/>
	</g>
</g>
<g>
	<path class="st2" d="M294.8,62.5c0.6,0.1,1.1,0.5,1.1,0.5l-0.1,0.8h-5.1l-0.1-0.8c0,0,0.5-0.4,1-0.5l-0.6-1.6h-2.7l-0.6,1.6
		c0.5,0.1,1,0.5,1,0.5l-0.1,0.8h-3.4L285,63c0,0,0.5-0.4,1.1-0.5l3.2-8.5h2.5L294.8,62.5z M288.7,59.5h1.7l-0.6-1.7v-1.1h-0.1
		L288.7,59.5z"/>
	<path class="st2" d="M295.8,67.1l-0.1-0.6c0,0,0.4-0.3,0.9-0.4v-8h-0.8l-0.1-0.8c0,0,0.8-0.6,2.2-0.6c0.9,0,1.3,0.3,1.3,0.3v0.8
		h0.1c0,0,0.6-1.1,2-1.1c1.6,0,2.9,1.3,2.9,3.6c0,2.3-1.4,3.7-3,3.7c-1.3,0-1.8-0.8-1.8-0.8h-0.1l0.1,0.8v2.2
		c0.6,0.1,1.1,0.4,1.1,0.4l-0.1,0.6H295.8z M299.3,60.8c0,1.2,0.5,1.7,1,1.7s1-0.5,1-2.1s-0.5-2.1-1.1-2.1s-0.9,0.6-0.9,0.6V60.8z"
		/>
	<path class="st2" d="M304.9,67.1l-0.1-0.6c0,0,0.4-0.3,0.9-0.4v-8h-0.8l-0.1-0.8c0,0,0.8-0.6,2.2-0.6c0.9,0,1.3,0.3,1.3,0.3v0.8
		h0.1c0,0,0.6-1.1,2-1.1c1.6,0,2.9,1.3,2.9,3.6c0,2.3-1.4,3.7-3,3.7c-1.3,0-1.8-0.8-1.8-0.8h-0.1l0.1,0.8v2.2
		c0.6,0.1,1.1,0.4,1.1,0.4l-0.1,0.6H304.9z M308.4,60.8c0,1.2,0.5,1.7,1,1.7s1-0.5,1-2.1s-0.5-2.1-1.1-2.1s-0.9,0.6-0.9,0.6V60.8z"
		/>
	<path class="st2" d="M313.9,63.8l-0.1-0.6c0,0,0.4-0.3,0.9-0.4v-8.2h-0.8l-0.1-0.8c0,0,0.8-0.6,2.2-0.6c1,0,1.5,0.3,1.5,0.3v9.3
		c0.5,0.1,0.9,0.4,0.9,0.4l-0.1,0.6H313.9z"/>
	<path class="st2" d="M318.6,63.8l-0.1-0.6c0,0,0.4-0.3,0.9-0.4v-4.5h-0.8l-0.1-0.8c0,0,0.8-0.6,2.2-0.6c1,0,1.5,0.3,1.5,0.3v5.6
		c0.5,0.1,0.9,0.4,0.9,0.4l-0.1,0.6H318.6z M320.7,56.4c-0.8,0-1.5-0.6-1.5-1.3c0-0.7,0.6-1.3,1.5-1.3c0.8,0,1.5,0.6,1.5,1.3
		C322.2,55.7,321.6,56.4,320.7,56.4z"/>
	<path class="st2" d="M329,57.8c-0.4-0.1-0.8-0.4-0.8-0.4l0.1-0.6h2.8l0.1,0.6c0,0-0.3,0.3-0.8,0.4l-1.3,1.8c0.4,0.9,1.4,2.5,2,3.1
		c0.5,0.1,0.8,0.4,0.8,0.4l-0.1,0.6h-3.3c-0.5-0.7-1.2-2.2-1.4-3h-0.3v2c0.4,0.2,0.7,0.4,0.7,0.4l-0.1,0.6h-4.1l-0.1-0.6
		c0,0,0.4-0.3,0.9-0.4v-8.2h-0.8l-0.1-0.8c0,0,0.8-0.6,2.2-0.6c1,0,1.5,0.3,1.5,0.3v6.2l1-0.1L329,57.8z"/>
	<path class="st2" d="M339.3,62.4h0.8l0.1,0.8c0,0-0.8,0.6-2.2,0.6c-0.9,0-1.3-0.3-1.3-0.3v-0.8h-0.1c0,0-0.7,1.1-2.1,1.1
		c-1.3,0-2.2-0.8-2.2-2c0-1.2,1-2.2,3-2.2c0.7,0,1.3,0.1,1.3,0.1v-1.2c0-0.6-0.3-1-1-1c-0.2,0-0.5,0.1-0.5,0.1l-0.1,1.5h-2
		c0,0-0.2-0.2-0.2-0.7c0-1.1,1-2,3.2-2c2.2,0,3.4,1.1,3.4,2.5V62.4z M336.5,61.7v-1h-0.4c-0.8,0-1.1,0.4-1.1,0.8
		c0,0.4,0.3,0.7,0.7,0.7C336.2,62.3,336.5,61.7,336.5,61.7z"/>
	<path class="st2" d="M341.2,58h-0.8l-0.2-0.9c0,0,0.5-0.4,1.1-0.4l0.9-1.7h1.8v1.8h1.6V58H344v3.2c0,0.7,0.4,1.1,0.8,1.1
		s1-0.4,1-0.4l0.5,0.8c0,0-0.9,1.1-2.7,1.1c-1.5,0-2.3-0.8-2.3-2.1V58z"/>
	<path class="st2" d="M346.7,63.8l-0.1-0.6c0,0,0.4-0.3,0.9-0.4v-4.5h-0.8l-0.1-0.8c0,0,0.8-0.6,2.2-0.6c1,0,1.5,0.3,1.5,0.3v5.6
		c0.5,0.1,0.9,0.4,0.9,0.4l-0.1,0.6H346.7z M348.8,56.4c-0.8,0-1.5-0.6-1.5-1.3c0-0.7,0.6-1.3,1.5-1.3c0.8,0,1.5,0.6,1.5,1.3
		C350.3,55.7,349.6,56.4,348.8,56.4z"/>
	<path class="st2" d="M355.5,63.9c-2.5,0-4-1.5-4-3.6c0-2.1,1.6-3.7,4-3.7c2.5,0,4,1.5,4,3.6C359.5,62.3,357.9,63.9,355.5,63.9z
		 M355.5,57.8c-0.6,0-1.1,0.6-1.1,2.5s0.6,2.5,1.1,2.5c0.6,0,1.1-0.6,1.1-2.5S356.1,57.8,355.5,57.8z"/>
	<path class="st2" d="M363.8,58.8v3.9c0.3,0.2,0.6,0.4,0.6,0.4l-0.1,0.6h-3.9l-0.1-0.6c0,0,0.4-0.3,0.9-0.4v-4.6h-0.8l-0.1-0.8
		c0,0,0.8-0.6,2.2-0.6c0.9,0,1.3,0.3,1.3,0.3v0.8h0.1c0,0,0.7-1.1,2.1-1.1c1.3,0,2.2,0.9,2.2,2.2v3.9c0.5,0.1,0.9,0.4,0.9,0.4
		l-0.1,0.6h-3.9l-0.1-0.6c0,0,0.2-0.2,0.6-0.4v-3.6c0-0.6-0.3-0.8-0.7-0.8C364.1,58.2,363.8,58.8,363.8,58.8z"/>
	<path class="st2" d="M369.5,58.9c0-1.2,1.1-2.2,3.1-2.2c1.6,0,2.8,0.5,2.8,0.5l-0.1,2h-1.1c0,0-0.4-0.6-0.6-1.3
		c0,0-0.2-0.1-0.5-0.1c-0.5,0-0.8,0.3-0.8,0.6c0,0.9,3.5,1,3.5,3.2c0,1.3-1.1,2.4-3.2,2.4c-1.9,0-3.1-0.6-3.1-0.6l0.2-2h1.1
		c0,0,0.5,0.6,0.7,1.3c0,0,0.3,0.1,0.7,0.1c0.6,0,0.9-0.4,0.9-0.7C373,61.2,369.5,61.1,369.5,58.9z"/>
	<path class="st2" d="M376.6,59.2h4.2v1.4h-4.2V59.2z"/>
	<path class="st2" d="M295.3,74.5c0-2.1,1.6-3.7,3.8-3.7s3.5,1.3,3.5,3.1c0,0.6-0.1,0.8-0.1,0.8h-4.3c0.1,1.3,0.8,2,1.9,2
		c0.9,0,1.6-0.8,1.6-0.8l0.7,0.7c0,0-1,1.5-3.1,1.5C296.8,78.1,295.3,76.6,295.3,74.5z M298.2,73.5h1.8c-0.1-1.1-0.5-1.5-0.9-1.5
		S298.2,72.3,298.2,73.5z"/>
	<path class="st2" d="M306.9,73v3.9c0.3,0.2,0.6,0.4,0.6,0.4l-0.1,0.6h-3.9l-0.1-0.6c0,0,0.4-0.3,0.9-0.4v-4.6h-0.8l-0.1-0.8
		c0,0,0.8-0.6,2.2-0.6c0.9,0,1.3,0.3,1.3,0.3v0.8h0.1c0,0,0.7-1.1,2.1-1.1c1.3,0,2.2,0.9,2.2,2.2v3.9c0.5,0.1,0.9,0.4,0.9,0.4
		l-0.1,0.6H308l-0.1-0.6c0,0,0.2-0.2,0.6-0.4v-3.6c0-0.6-0.3-0.8-0.7-0.8C307.2,72.4,306.9,73,306.9,73z"/>
	<path class="st2" d="M313.1,72.2h-0.8l-0.2-0.9c0,0,0.5-0.4,1.1-0.4l0.9-1.7h1.8v1.8h1.6v1.3h-1.6v3.2c0,0.7,0.4,1.1,0.8,1.1
		s1-0.4,1-0.4l0.5,0.8c0,0-0.9,1.1-2.7,1.1c-1.5,0-2.3-0.8-2.3-2.1V72.2z"/>
	<path class="st2" d="M325.5,78l-1-3.3v-1h-0.1l-1.3,4.3h-2.2l-2-6c-0.5-0.1-0.8-0.4-0.8-0.4l0.1-0.6h4.2l0.1,0.6
		c0,0-0.4,0.3-0.8,0.4l0.7,2.2v1h0.1l1.3-4.3h2.2l1,3.3v1h0.1l1.1-3.2c-0.4-0.1-0.8-0.4-0.8-0.4l0.1-0.6h2.8l0.1,0.6
		c0,0-0.4,0.3-0.8,0.4l-2,6H325.5z"/>
	<path class="st2" d="M330.7,78l-0.1-0.6c0,0,0.4-0.3,0.9-0.4v-4.5h-0.8l-0.1-0.8c0,0,0.8-0.6,2.2-0.6c1,0,1.5,0.3,1.5,0.3v5.6
		c0.5,0.1,0.9,0.4,0.9,0.4L335,78H330.7z M332.8,70.5c-0.8,0-1.5-0.6-1.5-1.3s0.6-1.3,1.5-1.3c0.8,0,1.5,0.6,1.5,1.3
		S333.7,70.5,332.8,70.5z"/>
	<path class="st2" d="M335.6,74.5c0-2.1,1.6-3.7,4.1-3.7c2,0,2.9,1,2.9,2.1c0,0.5-0.2,0.9-0.2,0.9h-1.8l-0.3-1.8
		c0,0-0.1-0.1-0.3-0.1c-0.8,0-1.5,0.7-1.5,2.3c0,1.6,0.8,2.5,1.9,2.5c1,0,1.7-0.8,1.7-0.8l0.7,0.7c0,0-1,1.5-3.2,1.5
		C337.1,78.1,335.6,76.6,335.6,74.5z"/>
	<path class="st2" d="M349.1,72c-0.4-0.1-0.8-0.4-0.8-0.4l0.1-0.6h2.8l0.1,0.6c0,0-0.3,0.3-0.8,0.4l-1.3,1.8c0.4,0.9,1.4,2.5,2,3.1
		c0.5,0.1,0.8,0.4,0.8,0.4l-0.1,0.6h-3.3c-0.5-0.7-1.2-2.2-1.4-3h-0.3v2c0.4,0.2,0.7,0.4,0.7,0.4l-0.1,0.6h-4.1l-0.1-0.6
		c0,0,0.4-0.3,0.9-0.4v-8.2h-0.8l-0.1-0.8c0,0,0.8-0.6,2.2-0.6c1,0,1.5,0.3,1.5,0.3v6.2l1-0.1L349.1,72z"/>
	<path class="st2" d="M352.2,78l-0.1-0.6c0,0,0.4-0.3,0.9-0.4v-8.2h-0.8l-0.1-0.8c0,0,0.8-0.6,2.2-0.6c1,0,1.5,0.3,1.5,0.3v9.3
		c0.5,0.1,0.9,0.4,0.9,0.4l-0.1,0.6H352.2z"/>
	<path class="st2" d="M357,74.5c0-2.1,1.6-3.7,3.8-3.7s3.5,1.3,3.5,3.1c0,0.6-0.1,0.8-0.1,0.8h-4.3c0.1,1.3,0.8,2,1.9,2
		c0.9,0,1.6-0.8,1.6-0.8l0.7,0.7c0,0-1,1.5-3.1,1.5C358.6,78.1,357,76.6,357,74.5z M359.9,73.5h1.8c-0.1-1.1-0.5-1.5-0.9-1.5
		S360,72.3,359.9,73.5z"/>
	<path class="st2" d="M365.1,78l-0.1-0.6c0,0,0.4-0.3,0.9-0.4v-4.6H365l-0.1-0.8c0,0,0.8-0.6,2.2-0.6c0.9,0,1.3,0.3,1.3,0.3v1.5h0.1
		c0,0,0.4-1.8,2-1.8c0.3,0,0.6,0.1,0.6,0.1v2.3h-2l-0.6,0.7v3c0.6,0.1,1,0.4,1,0.4l-0.1,0.6H365.1z"/>
</g>
<g>
	<path class="st2" d="M79,161c0,0-0.5,0.4-1,0.5v7.3c0.6,0.1,1,0.5,1,0.5l-0.1,0.8H74l-0.1-0.8c0,0,0.5-0.4,1.1-0.5v-7.3
		c-0.6-0.1-1.1-0.5-1.1-0.5l0.1-0.8h4.9L79,161z"/>
	<path class="st2" d="M83,165.1v3.9c0.4,0.2,0.6,0.4,0.6,0.4l-0.1,0.6h-3.9l-0.1-0.6c0,0,0.4-0.3,0.9-0.4v-4.6h-0.8l-0.1-0.8
		c0,0,0.8-0.6,2.2-0.6c0.9,0,1.3,0.3,1.3,0.3v0.8H83c0,0,0.7-1.1,2.1-1.1c1.3,0,2.2,0.9,2.2,2.2v3.9c0.5,0.1,0.9,0.4,0.9,0.4
		l-0.1,0.6h-3.9l-0.1-0.6c0,0,0.2-0.2,0.6-0.4v-3.6c0-0.6-0.3-0.8-0.7-0.8C83.4,164.5,83,165.1,83,165.1z"/>
	<path class="st2" d="M89.2,164.3h-0.8l-0.2-0.9c0,0,0.5-0.4,1-0.4l0.9-1.7H92v1.8h1.6v1.3H92v3.2c0,0.7,0.3,1.1,0.8,1.1
		s1-0.4,1-0.4l0.5,0.8c0,0-0.9,1.1-2.7,1.1c-1.5,0-2.3-0.8-2.3-2.1V164.3z"/>
	<path class="st2" d="M94.8,166.6c0-2.1,1.6-3.7,3.8-3.7c2.2,0,3.5,1.3,3.5,3.1c0,0.6-0.1,0.8-0.1,0.8h-4.3c0.1,1.3,0.8,2,1.9,2
		c0.9,0,1.6-0.8,1.6-0.8l0.7,0.7c0,0-1,1.5-3.1,1.5C96.3,170.2,94.8,168.7,94.8,166.6z M97.6,165.6h1.8c-0.1-1.1-0.5-1.5-0.9-1.5
		C98.1,164.1,97.7,164.5,97.6,165.6z"/>
	<path class="st2" d="M102.8,170.1l-0.1-0.6c0,0,0.4-0.3,0.9-0.4v-4.6h-0.8l-0.1-0.8c0,0,0.8-0.6,2.2-0.6c0.9,0,1.3,0.3,1.3,0.3v1.5
		h0.1c0,0,0.4-1.8,2-1.8c0.3,0,0.6,0.1,0.6,0.1v2.3h-2l-0.6,0.7v3c0.6,0.1,1.1,0.4,1.1,0.4l-0.1,0.6H102.8z"/>
	<path class="st2" d="M116.5,168.7h0.8l0.1,0.8c0,0-0.8,0.6-2.2,0.6c-0.9,0-1.3-0.3-1.3-0.3v-0.8h-0.1c0,0-0.7,1.1-2.1,1.1
		c-1.3,0-2.2-0.8-2.2-2c0-1.2,1-2.2,3-2.2c0.7,0,1.3,0.1,1.3,0.1V165c0-0.6-0.3-1-1-1c-0.2,0-0.5,0.1-0.5,0.1l-0.1,1.5h-2
		c0,0-0.2-0.2-0.2-0.7c0-1.1,1-2,3.2-2c2.2,0,3.4,1.1,3.4,2.5V168.7z M113.8,168v-1h-0.4c-0.8,0-1.1,0.4-1.1,0.8
		c0,0.4,0.3,0.7,0.7,0.7C113.5,168.6,113.8,168,113.8,168z"/>
	<path class="st2" d="M118,166.6c0-2.1,1.6-3.7,4.1-3.7c2,0,2.9,1,2.9,2.1c0,0.5-0.2,0.9-0.2,0.9H123l-0.3-1.8c0,0-0.1-0.1-0.4-0.1
		c-0.8,0-1.5,0.7-1.5,2.3s0.8,2.5,1.9,2.5c1,0,1.7-0.8,1.7-0.8l0.7,0.7c0,0-1,1.5-3.2,1.5C119.5,170.2,118,168.7,118,166.6z"/>
	<path class="st2" d="M126.8,164.3h-0.8l-0.2-0.9c0,0,0.5-0.4,1.1-0.4l0.9-1.7h1.8v1.8h1.6v1.3h-1.6v3.2c0,0.7,0.4,1.1,0.8,1.1
		s1-0.4,1-0.4l0.5,0.8c0,0-0.9,1.1-2.7,1.1c-1.5,0-2.3-0.8-2.3-2.1V164.3z"/>
	<path class="st2" d="M132.2,170.1l-0.1-0.6c0,0,0.4-0.3,0.9-0.4v-4.5h-0.8l-0.1-0.8c0,0,0.8-0.6,2.2-0.6c1,0,1.5,0.3,1.5,0.3v5.6
		c0.5,0.1,0.9,0.4,0.9,0.4l-0.1,0.6H132.2z M134.3,162.7c-0.8,0-1.5-0.6-1.5-1.3c0-0.7,0.6-1.3,1.5-1.3c0.8,0,1.5,0.6,1.5,1.3
		C135.8,162,135.2,162.7,134.3,162.7z"/>
	<path class="st2" d="M141.5,167.8h0.1l1.5-3.6c-0.4-0.1-0.8-0.4-0.8-0.4l0.1-0.6h2.8l0.1,0.6c0,0-0.3,0.3-0.8,0.4l-2.5,6h-2.2
		l-2.5-6c-0.5-0.1-0.8-0.4-0.8-0.4l0.1-0.6h4.4l0.1,0.6c0,0-0.4,0.3-0.8,0.4l1.1,2.7V167.8z"/>
	<path class="st2" d="M145.4,166.6c0-2.1,1.6-3.7,3.8-3.7c2.2,0,3.5,1.3,3.5,3.1c0,0.6-0.1,0.8-0.1,0.8h-4.3c0.1,1.3,0.8,2,1.9,2
		c0.9,0,1.6-0.8,1.6-0.8l0.7,0.7c0,0-1,1.5-3.1,1.5C147,170.2,145.4,168.7,145.4,166.6z M148.3,165.6h1.8c-0.1-1.1-0.5-1.5-0.9-1.5
		C148.8,164.1,148.4,164.5,148.3,165.6z"/>
	<path class="st2" d="M61.2,177.8l0.2,1.1v4.1c0.6,0.1,1.1,0.5,1.1,0.5l-0.1,0.8H59l-0.1-0.8c0,0,0.5-0.4,1.1-0.5v-7.3
		c-0.6-0.1-1.1-0.5-1.1-0.5l0.1-0.8h4.3l1.8,4v1h0.1l2.2-5h4l0.1,0.8c0,0-0.5,0.4-1.1,0.5v7.3c0.6,0.1,1.1,0.5,1.1,0.5l-0.1,0.8
		h-4.9l-0.1-0.8c0,0,0.5-0.4,1.1-0.5v-4.1l0.2-1.1h-0.1l-2.4,5.3h-1.4l-2.4-5.3H61.2z"/>
	<path class="st2" d="M72.2,180.8c0-2.1,1.6-3.7,3.8-3.7s3.5,1.3,3.5,3.1c0,0.6-0.1,0.8-0.1,0.8H75c0.1,1.3,0.8,2,1.9,2
		c0.9,0,1.6-0.8,1.6-0.8l0.7,0.7c0,0-1,1.5-3.1,1.5C73.7,184.4,72.2,182.8,72.2,180.8z M75,179.8h1.8c-0.1-1.1-0.5-1.5-0.9-1.5
		S75.1,178.6,75,179.8z"/>
	<path class="st2" d="M87.9,182.9h0.8l0.1,0.8c0,0-0.8,0.6-2.2,0.6c-0.9,0-1.3-0.3-1.3-0.3v-0.8h-0.1c0,0-0.7,1.1-2.1,1.1
		c-1.5,0-2.7-1.3-2.7-3.6c0-2.3,1.4-3.7,3.2-3.7c1.1,0,1.7,0.8,1.7,0.8h0.1l-0.1-0.8V175h-0.8l-0.1-0.8c0,0,0.8-0.6,2.2-0.6
		c1,0,1.5,0.3,1.5,0.3V182.9z M85.2,180.3c0-1.2-0.5-1.7-1-1.7s-1,0.5-1,2.1c0,1.6,0.5,2.1,1.1,2.1s0.9-0.6,0.9-0.6V180.3z"/>
	<path class="st2" d="M89.3,184.2l-0.1-0.6c0,0,0.4-0.3,0.9-0.4v-4.5h-0.8l-0.1-0.8c0,0,0.8-0.6,2.2-0.6c1,0,1.5,0.3,1.5,0.3v5.6
		c0.5,0.1,0.9,0.4,0.9,0.4l-0.1,0.6H89.3z M91.4,176.8c-0.8,0-1.5-0.6-1.5-1.3s0.6-1.3,1.5-1.3s1.5,0.6,1.5,1.3
		S92.2,176.8,91.4,176.8z"/>
	<path class="st2" d="M101.1,182.9h0.8l0.1,0.8c0,0-0.8,0.6-2.2,0.6c-0.9,0-1.3-0.3-1.3-0.3v-0.8h-0.1c0,0-0.7,1.1-2.1,1.1
		c-1.3,0-2.2-0.8-2.2-2c0-1.2,1-2.2,3-2.2c0.7,0,1.3,0.1,1.3,0.1v-1.2c0-0.6-0.3-1-1-1c-0.2,0-0.5,0.1-0.5,0.1l-0.1,1.5h-2
		c0,0-0.2-0.2-0.2-0.7c0-1.1,1-2,3.2-2c2.2,0,3.4,1.1,3.4,2.5V182.9z M98.4,182.2v-1H98c-0.8,0-1.1,0.4-1.1,0.8
		c0,0.4,0.3,0.7,0.7,0.7C98.1,182.8,98.4,182.2,98.4,182.2z"/>
	<path class="st2" d="M106,183.5c0,0,0.5-0.4,1.1-0.5v-7.3c-0.6-0.1-1.1-0.5-1.1-0.5l0.1-0.8h4.1c3.6,0,5.5,2,5.5,4.8
		c0,2.9-2.1,5-5.5,5h-4.1L106,183.5z M110.1,182.9L110.1,182.9c1.3,0,2.3-1,2.3-3.6s-1-3.6-2.2-3.6h-0.1V182.9z"/>
	<path class="st2" d="M116.5,180.8c0-2.1,1.6-3.7,3.8-3.7c2.2,0,3.5,1.3,3.5,3.1c0,0.6-0.1,0.8-0.1,0.8h-4.3c0.1,1.3,0.8,2,1.9,2
		c0.9,0,1.6-0.8,1.6-0.8l0.7,0.7c0,0-1,1.5-3.1,1.5C118.1,184.4,116.5,182.8,116.5,180.8z M119.4,179.8h1.8
		c-0.1-1.1-0.5-1.5-0.9-1.5C119.9,178.2,119.5,178.6,119.4,179.8z"/>
	<path class="st2" d="M124.8,179.3c0-1.2,1.1-2.2,3.1-2.2c1.6,0,2.8,0.5,2.8,0.5l-0.1,2h-1.1c0,0-0.4-0.6-0.6-1.3
		c0,0-0.2-0.1-0.5-0.1c-0.5,0-0.8,0.3-0.8,0.6c0,0.9,3.5,1,3.5,3.2c0,1.3-1.1,2.4-3.2,2.4c-1.9,0-3.1-0.6-3.1-0.6l0.2-2h1.1
		c0,0,0.5,0.6,0.7,1.3c0,0,0.3,0.1,0.7,0.1c0.6,0,0.9-0.4,0.9-0.7C128.3,181.7,124.8,181.6,124.8,179.3z"/>
	<path class="st2" d="M131.8,184.2l-0.1-0.6c0,0,0.4-0.3,0.9-0.4v-4.5h-0.8l-0.1-0.8c0,0,0.8-0.6,2.2-0.6c1,0,1.5,0.3,1.5,0.3v5.6
		c0.5,0.1,0.9,0.4,0.9,0.4l-0.1,0.6H131.8z M133.9,176.8c-0.8,0-1.5-0.6-1.5-1.3s0.6-1.3,1.5-1.3c0.8,0,1.5,0.6,1.5,1.3
		S134.7,176.8,133.9,176.8z"/>
	<path class="st2" d="M141.9,177.5c0,0,0.2-1.5,1.8-1.5c0.7,0,1,0.2,1,0.2v1.5h-2v0.1c0,0,1.1,0.5,1.1,1.8c0,1.5-1.1,2.6-3.4,2.6
		c-0.7,0-1.1-0.1-1.1-0.1v0.8h2.4c1.8,0,2.9,1.1,2.9,2.2c0,1.5-1.3,2.7-4,2.7c-2.8,0-3.9-1.1-3.9-2.1c0-1.3,1.3-1.7,1.3-1.7v-0.1
		c0,0-0.9-0.3-0.9-1.1c0-0.8,0.9-1.1,0.9-1.1v-0.1c0,0-1.1-0.6-1.1-1.8c0-1.5,1.1-2.6,3.4-2.6C141.3,177.1,141.9,177.5,141.9,177.5z
		 M141.2,184.5h-2c0,0-0.3,0.3-0.3,0.8c0,0.6,0.6,1.2,1.8,1.2s1.8-0.5,1.8-1.1C142.5,184.9,142.1,184.5,141.2,184.5z M141.1,179.6
		c0-1.1-0.4-1.4-0.8-1.4c-0.4,0-0.8,0.4-0.8,1.4c0,1,0.3,1.4,0.8,1.4C140.8,181,141.1,180.7,141.1,179.6z"/>
	<path class="st2" d="M148.3,179.3v3.9c0.3,0.2,0.6,0.4,0.6,0.4l-0.1,0.6h-3.9l-0.1-0.6c0,0,0.4-0.3,0.9-0.4v-4.6h-0.8l-0.1-0.8
		c0,0,0.8-0.6,2.2-0.6c0.9,0,1.3,0.3,1.3,0.3v0.8h0.1c0,0,0.7-1.1,2.1-1.1c1.3,0,2.2,0.9,2.2,2.2v3.9c0.5,0.1,0.9,0.4,0.9,0.4
		l-0.1,0.6h-3.9l-0.1-0.6c0,0,0.2-0.2,0.6-0.4v-3.6c0-0.6-0.3-0.8-0.7-0.8C148.7,178.7,148.3,179.3,148.3,179.3z"/>
	<path class="st2" d="M153.9,180.8c0-2.1,1.6-3.7,3.8-3.7s3.5,1.3,3.5,3.1c0,0.6-0.1,0.8-0.1,0.8h-4.3c0.1,1.3,0.8,2,1.9,2
		c0.9,0,1.6-0.8,1.6-0.8l0.7,0.7c0,0-1,1.5-3.1,1.5C155.5,184.4,153.9,182.8,153.9,180.8z M156.8,179.8h1.8
		c-0.1-1.1-0.5-1.5-0.9-1.5S156.9,178.6,156.8,179.8z"/>
	<path class="st2" d="M162,184.2l-0.1-0.6c0,0,0.4-0.3,0.9-0.4v-4.6h-0.8l-0.1-0.8c0,0,0.8-0.6,2.2-0.6c0.9,0,1.3,0.3,1.3,0.3v1.5
		h0.1c0,0,0.4-1.8,2-1.8c0.3,0,0.6,0.1,0.6,0.1v2.3h-2l-0.6,0.7v3c0.6,0.1,1.1,0.4,1.1,0.4l-0.1,0.6H162z"/>
</g>
<g>
	<path class="st7" d="M265.8,188.1c0.1-0.1,0.2-0.2,0.3-0.3c0.5-0.3,0-1.2-0.5-0.8c-0.2,0.1-0.4,0.3-0.5,0.4
		C264.6,187.9,265.3,188.6,265.8,188.1z"/>
	<path class="st7" d="M237.7,205c-11.9-3.2-0.1-22.5,4.9-27.3c0.3-0.3-0.2-0.8-0.5-0.5c-4.7,4.3-19.3,28.1-4.6,28.9
		C238.1,206.1,238.2,205.1,237.7,205z"/>
	<path class="st7" d="M244.9,188c-0.3-0.4-0.9-0.1-1,0.4c0,0.7-1.5,2.2-1.9,2.7c-0.5,0.6-0.9,1.3-1.4,1.9c0,0,0,0,0-0.1
		c-0.3-0.5-1-0.1-0.8,0.4c0.1,0.1,0.2,0.3,0.2,0.5c-0.3,0.4-0.5,0.6-0.5-0.3c0-1.3,0.5-2.7,0.8-4c0.4-1.5,0.7-3,1.3-4.4
		c0.2-0.5-0.6-0.7-0.8-0.2c-0.8,2-1.3,4.1-1.8,6.2c-0.3,1.3-0.9,2.7-0.6,4.1c0,0.2,0.2,0.3,0.4,0.4c0.7,0.2,1.3-0.1,1.8-0.6
		c0.6,1,1.5,1.9,2.6,2c0.5,0,0.6-0.6,0.2-0.8c-0.9-0.5-1.6-1.2-2.2-2c0.2-0.2,0.3-0.4,0.5-0.6c1.1-1.4,2.7-3,3.3-4.7
		c0.1-0.2,0-0.5-0.2-0.6C245,188.1,245,188,244.9,188z"/>
	<path class="st7" d="M248.1,183.6c-1.4,4.5-2.6,8.9-2.5,13.7c0,0.7,1.1,0.7,1.1,0c0.2-4.7,0.9-9,2.2-13.5
		C249.1,183.3,248.3,183.1,248.1,183.6z"/>
	<path class="st7" d="M254,191.5c-0.1,0-0.2-0.1-0.3-0.1c-0.2-0.5-0.4-0.9-0.7-1.4c-0.3-0.6-0.6-1.4-1.3-1.6c-1.2-0.5-2.2,1.1-2.7,2
		c-0.3,0.4,0.4,0.8,0.7,0.4c0.3-0.5,0.7-1.2,1.3-1.3c0.5-0.1,0.5,0.1,0.7,0.5c0.2,0.4,0.4,0.8,0.6,1.3c0,0,0,0.1,0,0.1
		c-0.6,0.1-1.1,0.4-1.5,0.8c-0.7,0.7-0.9,1.9-0.3,2.7c1,1.2,2.5,0.3,3.5-0.3c0.3-0.2,0.3-0.5,0.3-0.7c0.1,0,0.2-0.1,0.3-0.1
		C255.4,192.9,254.8,191.9,254,191.5z M252.6,193.9c-0.2,0.2-0.5,0.1-0.7-0.1c-0.5-0.1-0.6-0.3-0.3-0.6c0.1-0.3,0.6-0.6,0.9-0.6
		c-0.1,0,0.2,0,0.4,0.1c0.2,0.3,0.3,0.6,0.6,0.8c0,0,0,0-0.1,0C253.2,193.6,252.9,193.8,252.6,193.9z"/>
	<path class="st7" d="M257.5,191.6c-0.5-0.6-1.4-1.3-0.8-2.2c0.2-0.3,0.8-0.5,1.1-0.7c0.4-0.2,0-0.7-0.3-0.6c-1,0.5-2.1,1.1-1.9,2.4
		c0.2,0.7,0.8,1.3,1.2,1.9c0.5,0.8,0.7,1.5,0.1,2.3c-0.4,0.5-0.2,0.3-0.2-0.1c0.1-0.5-0.5-1-0.9-0.5c-0.4,0.5-1,1.4-0.4,2.1
		c0.6,0.6,1.8,0.1,2.3-0.3c0.8-0.7,1-1.8,0.6-2.8C258.2,192.5,257.9,192,257.5,191.6z"/>
	<path class="st7" d="M266.3,191.9c-0.4-1.3-0.6-2.8-2.5-1.7c-0.6,0.3-1.1,0.8-1.6,1.4c-0.1-0.2-0.2-0.3-0.3-0.5
		c-0.3-0.4-0.7-0.7-1-1.1c-0.5-0.8-0.1-1.2,0.7-1.6c0.4-0.2,0.1-0.9-0.3-0.7c-0.9,0.3-2.1,0.8-1.8,1.9c0.1,0.5,1.3,1.8,2,2.9
		c0,0.1-0.1,0.1-0.1,0.2c-0.5,0.7-1.5,1.8-1.1,2.7c0.7,1.7,2.7-0.3,2.8-1.4c0-0.4,0-0.7-0.2-1.1c0.1-0.1,0.1-0.1,0.1-0.2
		c0.4-0.5,1.2-1.4,1.9-1.6c0.4,1,0.2,2.2,1,3c0.5,0.5,1.1,0.2,1.4-0.4c0.2-0.5,0.1-1-0.1-1.5C267,192,266.7,191.8,266.3,191.9z"/>
	<path class="st7" d="M272.2,191c-0.5-0.4-1.3-0.7-1.6-1.3c-0.3-0.5-0.1-0.5,0.3-0.7c0.2-0.1,0.5-0.2,0.7-0.3c0.5-0.2,0.3-1-0.2-0.9
		c-1,0.3-2.7,1-2,2.4c0.5,0.9,1.7,1.5,2.5,2.2c0.1,0.1,0.4,0.3,0.4,0.4c0.1,0.4-0.1,0.4-0.5,0.5c-0.2,0.1-0.7,0.2-1.1,0.3
		c-0.1-0.1-0.3-0.1-0.4-0.1c-0.1,0-0.3,0-0.4,0.1c-0.7,0.3-0.7,1.1,0,1.4c0.7,0.3,1.9-0.2,2.6-0.5c0.7-0.3,1.4-0.8,1.3-1.6
		C273.7,192.1,272.8,191.5,272.2,191z"/>
	<path class="st7" d="M276.4,191.9c-0.2,0.2-0.4,0.5-0.7,0.5c0,0-0.2,0.1-0.2,0.1c-0.2-0.1,0-0.7,0-0.8c0.3-1,1-1.6,1.6-2.4
		c0.3-0.4-0.2-0.9-0.5-0.5c-1,1-2.9,2.5-2.2,4.2c0.6,1.6,2.4,0.6,3-0.4C277.7,192,276.9,191.4,276.4,191.9z"/>
	<path class="st7" d="M280.5,190.3c0.3,0.1,0.9-0.2,1.1-0.2c0.5,0.1,0.5,0.5,0.7,1c0.5,1,1.2,1.7,2.2,2c0.6,0.1,1-0.6,0.6-1
		c-0.7-0.6-1.3-1.2-1.8-2.1c-0.2-0.4-0.4-0.9-0.9-1.2c-0.6-0.3-1.4,0.3-1.9-0.3c-0.3-0.5,0.3-2.8,0.3-3.4c0.1-0.7-1-1-1.1-0.3
		C279.6,186.2,278.4,190,280.5,190.3z"/>
	<path class="st7" d="M286.3,176.9c-0.3-0.4-0.8,0.2-0.5,0.5c4,4.8,5.3,9.4,3.1,15.3c-1.8,4.8-5.3,8.4-9.2,11.8
		c-0.5,0.4,0.2,1.2,0.7,0.9c5-3.6,8.9-8.6,10.3-14.8C291.9,184.9,289.9,181.1,286.3,176.9z"/>
</g>
</svg>
